<svg xmlns="http://www.w3.org/2000/svg" width="605.762" height="446.101" viewBox="0 0 160.275 118.031"><path d="M146.695 81.304a1.246 1.246 0 000-2.49 1.246 1.246 0 000 2.49zm8.713 0a1.246 1.246 0 000-2.49 1.246 1.246 0 000 2.49zm.622.622h-1.245a1.24 1.24 0 00-.877.362 2.845 2.845 0 011.46 2.127h1.284a.622.622 0 00.623-.622v-.622c0-.687-.559-1.245-1.245-1.245zm-4.979 0a2.177 2.177 0 100-4.356 2.177 2.177 0 100 4.356zm1.494.622h-.161a3.063 3.063 0 01-1.333.311 3.07 3.07 0 01-1.332-.31h-.161a2.24 2.24 0 00-2.24 2.24v.56c0 .515.418.933.933.933h5.6a.934.934 0 00.934-.933v-.56a2.24 2.24 0 00-2.24-2.24zm-4.35-.26a1.24 1.24 0 00-.877-.362h-1.245c-.686 0-1.245.558-1.245 1.245v.622c0 .344.279.622.623.622h1.281a2.852 2.852 0 011.463-2.127z" fill="#428bca"/><path d="M5.911 29.146v85.716h130.731V29.146z" fill="#f8f8f8" fill-rule="evenodd"/><path d="M5.911 29.146h130.731v85.716H5.912z" fill="none" stroke="#ccc" stroke-width=".338" stroke-miterlimit="8"/><path d="M126.513 109.627l1.418 3.04h-.327l-.477-1h-1.311l-.475 1H125l1.437-3.04zm-.038.645l-.523 1.102h1.04zm1.757-.645h.313l.618 2.191.872-2.19h.062l.862 2.19.63-2.19h.31l-.872 3.04h-.058l-.901-2.3-.92 2.3h-.058zm3.926 2.474l.258-.155q.273.503.63.503.154 0 .288-.07.134-.073.205-.193.07-.12.07-.254 0-.153-.104-.3-.142-.202-.52-.488-.38-.287-.474-.415-.161-.215-.161-.465 0-.199.095-.362.095-.163.267-.256.173-.095.376-.095.215 0 .4.107.189.105.398.39l-.248.189q-.172-.228-.294-.3-.12-.072-.262-.072-.184 0-.302.111-.116.112-.116.275 0 .1.042.193.04.093.15.202.06.058.393.304.395.291.542.519.146.227.146.457 0 .33-.252.574-.25.244-.61.244-.276 0-.502-.147-.225-.148-.415-.496z" aria-label="AWS" font-weight="400" font-size="16" font-family="Century Gothic" letter-spacing="0" word-spacing="0" fill="#333"/><path d="M45.215 32.108v10.534h22.042V32.108z" fill="#fff" fill-rule="evenodd"/><path d="M45.046 42.642v-1.015h.338v1.015zm0-1.354v-1.015h.338v1.015zm0-1.353v-1.016h.338v1.016zm0-1.354v-1.016h.338v1.016zm0-1.354v-1.015h.338v1.015zm0-1.354v-1.015h.338v1.015zm0-1.354v-1.015h.338v1.015zm0-1.354V32.15h.338v1.015zm.465-1.227h1.016v.339H45.51zm1.354 0h1.016v.339h-1.016zm1.354 0h1.015v.339H48.22zm1.354 0h1.015v.339h-1.015zm1.354 0h1.015v.339h-1.015zm1.354 0h1.015v.339H52.28zm1.353 0h1.016v.339h-1.016zm1.354 0h1.016v.339h-1.016zm1.354 0h1.015v.339h-1.015zm1.354 0h1.015v.339h-1.015zm1.354 0h1.015v.339H59.05zm1.354 0h1.015v.339h-1.015zm1.353 0h1.016v.339h-1.016zm1.354 0h1.016v.339H63.11zm1.354 0h1.016v.339h-1.016zm1.354 0h1.015v.339H65.82zm1.354 0h.254v1.1h-.339v-.93l.17.169h-.085zm.254 1.439v1.015h-.339v-1.015zm0 1.354v1.015h-.339v-1.015zm0 1.354V37.1h-.339v-1.015zm0 1.353v1.016h-.339v-1.016zm0 1.354v1.016h-.339v-1.016zm0 1.354v1.016h-.339v-1.016zm0 1.354v1.015h-.339V41.5zm-.381 1.312H66.03v-.339h1.015zm-1.354 0h-1.015v-.339h1.015zm-1.354 0h-1.015v-.339h1.015zm-1.354 0H61.97v-.339h1.015zm-1.353 0h-1.016v-.339h1.016zm-1.354 0H59.26v-.339h1.016zm-1.354 0h-1.016v-.339h1.016zm-1.354 0h-1.015v-.339h1.015zm-1.354 0H55.2v-.339h1.015zm-1.354 0h-1.015v-.339h1.015zm-1.354 0h-1.015v-.339h1.015zm-1.353 0h-1.016v-.339h1.016zm-1.354 0h-1.016v-.339H50.8zm-1.354 0H48.43v-.339h1.015zm-1.354 0h-1.015v-.339h1.015zm-1.354 0h-1.015v-.339h1.015zm-1.354 0h-.169v-.339h.17z" fill="#333" stroke="#333" stroke-width=".005" stroke-linejoin="round"/><path d="M54.446 37.003l.214-.128q.226.416.522.416.126 0 .238-.058.111-.06.17-.16.057-.099.057-.21 0-.127-.085-.248-.118-.168-.432-.404-.314-.238-.392-.344-.133-.178-.133-.385 0-.165.079-.3.078-.135.22-.212.144-.079.312-.079.178 0 .332.089.156.087.329.324l-.206.155q-.142-.188-.243-.248-.099-.06-.217-.06-.152 0-.25.093-.096.092-.096.227 0 .082.034.16.035.077.125.167.05.048.326.252.327.241.448.43.122.188.122.378 0 .274-.21.476-.206.202-.504.202-.23 0-.416-.122-.187-.123-.344-.41zm2.164-1.465h-.257q.07-.311.268-.48.199-.167.47-.167.196 0 .366.09.171.09.263.242.095.152.095.318 0 .326-.324.516.181.073.298.215.164.2.164.449 0 .214-.113.409-.113.193-.308.3-.195.106-.436.106-.326 0-.543-.187-.217-.188-.284-.551h.246q.065.245.187.354.156.139.397.139.274 0 .44-.164.166-.165.166-.386 0-.147-.084-.275-.082-.129-.222-.194t-.432-.08v-.231q.173 0 .315-.06.142-.062.206-.156.065-.094.065-.205 0-.165-.132-.284-.13-.12-.33-.12-.163 0-.281.092-.118.091-.2.31z" aria-label="S3" font-weight="400" font-size="13.25" font-family="Century Gothic" letter-spacing="0" word-spacing="0" fill="#333"/><path d="M49.278 39.309l-.078.116q-.095-.135-.226-.135-.074 0-.127.049-.052.048-.052.107 0 .046.032.087.03.041.141.113.162.104.213.181.05.079.05.181 0 .142-.098.235-.099.093-.257.093-.208 0-.351-.185l.088-.102q.125.152.272.152.083 0 .145-.06.062-.058.062-.136 0-.063-.046-.12-.03-.038-.161-.127-.142-.097-.186-.161-.045-.063-.045-.143 0-.125.094-.213.094-.087.238-.087.085 0 .153.034.07.034.14.12zm.481-.547h.142l-.056.42h.223l-.017.127h-.223l-.136.998h-.145l.135-.998h-.193l.018-.126h.192zm1.503 1.545h-.146l.022-.17q-.196.199-.448.199-.23 0-.377-.148-.148-.148-.148-.38 0-.269.191-.461.193-.193.452-.193.14 0 .246.058.106.06.182.184l.026-.213h.15zm-.556-.103q.14 0 .254-.065.115-.067.182-.19.067-.123.067-.267 0-.175-.11-.285-.111-.11-.288-.11-.208 0-.355.15-.148.15-.148.369 0 .179.11.288.11.11.288.11zm1.219-1.442h.142l-.056.42h.223l-.016.127h-.224l-.136.998h-.145l.136-.998h-.194l.018-.126h.192zm.628-.042q.047 0 .081.034t.034.081q0 .049-.034.083-.034.033-.081.033-.049 0-.083-.033-.033-.034-.033-.083 0-.047.033-.081.034-.035.083-.035zm-.114.463h.137l-.15 1.124h-.142zm1.494.242l-.118.07q-.126-.203-.383-.203-.149 0-.272.066-.123.066-.192.184-.07.118-.07.252 0 .12.052.213.052.094.145.145.094.05.221.05.13 0 .248-.051.12-.052.185-.133l.12.083q-.112.122-.244.18-.13.055-.302.055-.267 0-.417-.145-.149-.145-.149-.387 0-.27.196-.46t.48-.19q.17 0 .3.072.131.071.2.2z" aria-label="static" font-style="italic" font-weight="400" font-size="8" font-family="Century Gothic" letter-spacing="0" word-spacing="0" fill="#333"/><path d="M54.083 39.672h.57l-.02.126h-.568z" fill="#333" aria-label="-" font-style="italic" font-weight="400" font-size="8" font-family="Century Gothic" letter-spacing="0" word-spacing="0"/><path d="M55.498 39.309l-.079.116q-.095-.135-.225-.135-.075 0-.127.049-.053.048-.053.107 0 .046.032.087.03.041.142.113.16.104.212.181.051.079.051.181 0 .142-.1.235-.097.093-.255.093-.21 0-.352-.185l.088-.102q.125.152.272.152.084 0 .146-.06.062-.058.062-.136 0-.063-.047-.12-.03-.038-.161-.127-.142-.097-.186-.161-.045-.063-.045-.143 0-.125.094-.213.094-.087.238-.087.085 0 .153.034.07.034.14.12zm.388-.589q.048 0 .082.034t.034.081q0 .049-.034.083-.034.033-.082.033t-.082-.033q-.034-.034-.034-.083 0-.047.034-.081.034-.035.082-.035zm-.114.463h.138l-.15 1.124h-.143zm.632-.421h.142l-.056.42h.223l-.017.127h-.223l-.136.998h-.145l.136-.998h-.194l.018-.126h.192zm1.549 1.012h-1.002q-.003.2.104.315.108.115.286.115.12 0 .22-.049.102-.049.168-.136l.107.087q-.081.105-.213.168-.132.062-.285.062-.264 0-.398-.163-.132-.165-.132-.37 0-.167.089-.322.09-.155.24-.24.15-.087.324-.087.216 0 .358.146.141.146.141.372 0 .042-.007.102zm-.132-.125q-.006-.16-.109-.258-.102-.099-.257-.099-.168 0-.298.095-.128.095-.181.262z" aria-label="site" font-style="italic" font-weight="400" font-size="8" font-family="Century Gothic" letter-spacing="0" word-spacing="0" fill="#333"/><path d="M58.187 39.672h.57l-.02.126h-.568z" fill="#333" aria-label="-" font-style="italic" font-weight="400" font-size="8" font-family="Century Gothic" letter-spacing="0" word-spacing="0"/><path d="M59.601 39.309l-.078.116q-.095-.135-.225-.135-.075 0-.128.049-.052.048-.052.107 0 .046.032.087.03.041.141.113.162.104.213.181.05.079.05.181 0 .142-.098.235t-.257.093q-.208 0-.351-.185l.088-.102q.125.152.272.152.083 0 .145-.06.062-.058.062-.136 0-.063-.046-.12-.03-.038-.161-.127-.142-.097-.186-.161-.045-.063-.045-.143 0-.125.094-.213.094-.087.238-.087.085 0 .153.034.07.034.14.12zm.481-.547h.142l-.056.42h.223l-.016.127h-.224l-.136.998h-.145l.136-.998h-.194l.018-.126h.192zm1.503 1.545h-.146l.022-.17q-.196.199-.448.199-.23 0-.377-.148-.148-.148-.148-.38 0-.269.191-.461.193-.193.452-.193.14 0 .246.058.106.06.182.184l.026-.213h.15zm-.556-.103q.14 0 .254-.065.115-.067.182-.19.067-.123.067-.267 0-.175-.11-.285-.111-.11-.288-.11-.208 0-.355.15-.148.15-.148.369 0 .179.11.288.111.11.288.11zm1.219-1.442h.142l-.056.42h.223l-.016.127h-.223l-.137.998h-.145l.136-.998h-.193l.017-.126h.192zm1.55 1.012h-1.003q-.003.2.104.315.108.115.287.115.119 0 .22-.049t.167-.136l.108.087q-.082.105-.214.168-.131.062-.284.062-.265 0-.398-.163-.133-.165-.133-.37 0-.167.09-.322t.24-.24q.149-.087.324-.087.216 0 .357.146.142.146.142.372 0 .042-.007.102zm-.133-.125q-.006-.16-.108-.258-.103-.099-.258-.099-.168 0-.297.095-.128.095-.182.262z" aria-label="state" font-style="italic" font-weight="400" font-size="8" font-family="Century Gothic" letter-spacing="0" word-spacing="0" fill="#333"/><path d="M75.296 3.17v16.753h58.046V3.17z" fill="#fff" fill-rule="evenodd"/><path d="M75.296 3.17h58.046v16.753H75.296z" fill="none" stroke="#333" stroke-width=".338" stroke-miterlimit="8"/><path d="M94.768 8.945V8.65h1.668v.295h-.678v2.745h-.31V8.945zm3.95 1.999l.244.128q-.12.236-.277.38-.157.145-.353.222-.197.074-.445.074-.55 0-.86-.36-.31-.361-.31-.816 0-.428.263-.763.333-.425.89-.425.575 0 .919.436.244.308.248.769h-2.022q.008.392.25.645.242.25.598.25.171 0 .332-.06.164-.06.277-.16.114-.099.246-.32zm0-.605q-.058-.232-.17-.37-.109-.139-.29-.224-.183-.084-.383-.084-.33 0-.568.212-.174.155-.263.466zm.751-.898h.295v.33q.133-.195.28-.29.146-.097.305-.097.12 0 .257.076l-.151.244q-.091-.04-.153-.04-.145 0-.28.12-.134.118-.204.368-.054.193-.054.778v.76h-.295zm1.273 0h.296v.33q.132-.195.279-.29.146-.097.306-.097.12 0 .256.076l-.151.244q-.091-.04-.153-.04-.145 0-.279.12-.134.118-.205.368-.053.193-.053.778v.76h-.296zm3.624 0v2.25h-.286v-.387q-.182.221-.409.333-.225.111-.494.111-.477 0-.816-.345-.337-.347-.337-.843 0-.486.34-.831.342-.345.821-.345.277 0 .5.117.226.118.395.354V9.44zm-1.158.222q-.242 0-.446.12-.205.117-.327.332-.12.215-.12.455 0 .238.122.455.122.217.327.339.206.12.442.12.238 0 .45-.12.213-.12.327-.325.116-.204.116-.46 0-.391-.258-.654-.257-.262-.633-.262zm2.737-1.09v.283q-.16-.068-.273-.068-.085 0-.14.035-.056.033-.07.079-.015.043-.015.236v.303h.469v.248h-.471v2.001h-.29v-2h-.295v-.25h.295v-.35q0-.242.044-.345.045-.104.15-.166.108-.064.259-.064.14 0 .337.058zm1.469.811q.52 0 .86.376.31.343.31.812 0 .471-.328.825-.327.351-.842.351-.516 0-.845-.351-.327-.354-.327-.825 0-.467.31-.81.342-.378.862-.378zm0 .283q-.36 0-.618.266-.258.267-.258.645 0 .244.118.455.118.21.318.327.2.113.44.113t.44-.113q.201-.116.32-.327.117-.21.117-.455 0-.378-.26-.645-.259-.266-.617-.266zm1.596-.226h.296v.33q.132-.195.279-.29.147-.097.306-.097.12 0 .256.076l-.15.244q-.092-.04-.154-.04-.144 0-.279.12-.134.118-.204.368-.054.193-.054.778v.76h-.296zm1.381 0h.287v.389q.151-.215.31-.314.22-.132.461-.132.164 0 .31.064.147.064.24.171.093.106.161.304.145-.265.362-.401.217-.138.467-.138.234 0 .412.117.18.118.266.329.087.21.087.633v1.227h-.295v-1.227q0-.362-.052-.497-.052-.136-.178-.219-.124-.082-.298-.082-.21 0-.386.124-.174.124-.254.33-.081.207-.081.69v.881h-.287v-1.15q0-.407-.052-.552-.05-.147-.176-.233-.126-.09-.3-.09-.2 0-.376.123-.173.12-.258.324-.083.205-.083.626v.953h-.287z" aria-label="Terraform" font-weight="400" font-size="16" font-family="Century Gothic" letter-spacing="0" word-spacing="0" fill="#333"/><path d="M96.804 13.275h.176l-.237 1.758h-.177zm.499.457h.16l-.025.2q.197-.233.46-.233.2 0 .323.124.123.123.123.333 0 .083-.026.28l-.082.597h-.164l.08-.597q.026-.19.026-.282 0-.136-.083-.22-.082-.083-.216-.083-.131 0-.245.068-.112.067-.174.184-.062.116-.096.368l-.078.562h-.163zm2.058-.457l-.023.158q-.09-.087-.168-.087-.05 0-.086.05-.036.048-.056.198l-.02.138h.267l-.018.147h-.268l-.162 1.154h-.164l.164-1.154h-.164l.018-.147h.165l.015-.114q.03-.202.061-.27.033-.068.096-.11.063-.04.14-.04.1 0 .203.077zm.133.457h.166l-.022.164q.067-.093.162-.144.094-.053.193-.053.07 0 .147.033l-.079.153q-.062-.025-.104-.025-.087 0-.173.061-.085.061-.139.178-.052.116-.09.383l-.076.55h-.162zm1.916 1.301h-.168l.025-.196q-.226.23-.517.23-.266 0-.437-.172-.17-.17-.17-.44 0-.31.22-.533.223-.223.523-.223.162 0 .284.068.123.068.21.213l.03-.248h.174zm-.642-.12q.16 0 .293-.075.133-.077.21-.219.078-.142.078-.31 0-.201-.127-.328-.128-.127-.333-.127-.24 0-.41.174-.172.173-.172.425 0 .207.128.333.128.127.333.127zm1.805-1.035l-.09.135q-.11-.156-.261-.156-.086 0-.147.056t-.061.124q0 .053.037.1.036.048.164.13.186.122.246.211.058.091.058.21 0 .163-.114.27-.114.108-.297.108-.241 0-.406-.214l.102-.118q.144.176.314.176.097 0 .168-.069.072-.068.072-.157 0-.073-.054-.14-.034-.043-.186-.146-.164-.112-.215-.186-.052-.073-.052-.165 0-.145.11-.246.108-.102.274-.102.098 0 .177.04.08.039.161.14zm.556-.632h.164l-.065.486h.258l-.019.146h-.258l-.158 1.155h-.167l.156-1.155h-.223l.02-.146h.223zm.557.486h.166l-.022.164q.067-.093.162-.144.094-.053.193-.053.07 0 .147.033l-.079.153q-.062-.025-.104-.025-.087 0-.173.061-.085.061-.138.178-.053.116-.09.383l-.077.55h-.162zm.802 0h.167l-.075.544q-.031.23-.031.297 0 .149.099.243.1.095.264.095.136 0 .236-.072.1-.072.144-.188.021-.058.051-.268l.093-.65h.164l-.067.492q-.048.352-.101.502-.054.148-.193.244-.137.095-.336.095-.225 0-.37-.137-.143-.139-.143-.346 0-.082.013-.192l.012-.115.006-.049zm2.693.281l-.137.08q-.145-.234-.442-.234-.172 0-.315.077-.142.076-.222.212-.08.137-.08.292 0 .137.06.246.06.109.167.167.109.059.256.059.15 0 .287-.06.137-.06.213-.154l.138.097q-.13.14-.28.207-.152.064-.351.064-.308 0-.482-.167-.172-.169-.172-.448 0-.311.226-.53.227-.222.556-.222.197 0 .348.084.15.082.23.23zm.585-.767h.163l-.064.486h.258l-.02.146h-.257l-.158 1.155h-.167l.156-1.155h-.223l.02-.146h.222zm.622.486h.167l-.075.544q-.03.23-.03.297 0 .149.098.243.1.095.264.095.137 0 .237-.072.1-.072.143-.188.022-.058.052-.268l.093-.65h.164l-.067.492q-.048.352-.102.502-.054.148-.192.244-.138.095-.336.095-.226 0-.37-.137-.144-.139-.144-.346 0-.082.013-.192l.012-.115.006-.049zm1.421 0h.166l-.021.164q.067-.093.16-.144.095-.053.195-.053.07 0 .147.033l-.08.153q-.061-.025-.103-.025-.088 0-.174.061-.084.061-.138.178-.053.116-.09.383l-.076.55h-.163zm1.971.684h-1.16q-.003.232.121.365.124.132.331.132.138 0 .255-.056.117-.056.193-.158l.125.102q-.095.12-.248.193-.152.072-.328.072-.306 0-.46-.189-.153-.19-.153-.426 0-.194.102-.373.104-.18.278-.279.173-.1.375-.1.25 0 .413.17.164.168.164.43 0 .048-.008.117zm-.153-.145q-.008-.184-.126-.297-.118-.115-.297-.115-.195 0-.345.11-.148.11-.21.302z" aria-label="Infrastructure" font-style="italic" font-weight="400" font-size="9.25" font-family="Century Gothic" letter-spacing="0" word-spacing="0" fill="#333"/><path d="M67.263 82.65l6.272-.048v-.35l-6.278.043zm5.928.835l2.105-1.073-2.12-1.042zm31.308-13.597v2.38h-.355v-2.38zm.878 2.026l-1.058 2.115-1.058-2.115zm-.878-51.991v7.32h-.355v-7.32zm.878 6.97l-1.058 2.116-1.058-2.116z" fill="#333" stroke="#333" stroke-width=".005" stroke-linejoin="round"/><path d="M143.358 82.073h-7.774v.889h7.774zm-7.33-.888l-2.665 1.332 2.666 1.333z" fill="#428bca" stroke="#428bca" stroke-width=".011" stroke-linejoin="round"/><path d="M94.53 92.592l-.048.592-.084.312-.1.302-.244.576-.301.571-.365.555-.423.545-.482.534-.534.519-.587.502-.64.487-.687.47-.735.455-.788.439-.825.423-.878.402-.915.386-.957.36-.994.343-1.037.328-1.074.302-1.105.28-1.142.254-1.174.227-1.206.207-1.232.185-1.264.153-1.29.127-1.317.1-1.338.07-1.508.047-.015-.55 1.502-.048h-.006l1.333-.069h-.005l1.306-.1h-.005l1.285-.127h-.006l1.26-.153-.012.005 1.227-.18h-.005l1.2-.206h-.005l1.169-.228h-.01l1.136-.253-.01.005 1.1-.28h-.005l1.063-.297h-.006l1.026-.322-.005.005.989-.344-.01.006.951-.36-.01.005.904-.38h-.005l.862-.397-.01.005.819-.418-.005.006.772-.434-.01.005.724-.45-.011.011.677-.465-.01.01.623-.48-.01.01.576-.492-.01.01.518-.502-.01.01.465-.517-.01.016.406-.53-.01.017.349-.535-.01.022.295-.55-.01.02.233-.555-.011.022.095-.28-.005.01.08-.286-.011.058.042-.565zm-1.333.338l1.042-2.126 1.074 2.11z" fill="#428bca" stroke="#428bca" stroke-width=".005" stroke-linejoin="round"/><path d="M88.824 100.98h.199l.46 1.09.481-1.09H90l.48 1.09.468-1.09h.202l-.652 1.502h-.037l-.478-1.075-.482 1.075h-.035zm2.353 0h.198l.46 1.09.482-1.09h.035l.48 1.09.468-1.09h.202l-.652 1.502h-.037l-.478-1.075-.482 1.075h-.036zm2.353 0h.198l.46 1.09.482-1.09h.034l.48 1.09.469-1.09h.202l-.652 1.502h-.037l-.478-1.075-.482 1.075h-.036zm3.266 0h.198v.22q.088-.13.186-.194.098-.065.204-.065.08 0 .172.051l-.101.163q-.06-.026-.102-.026-.097 0-.187.08-.09.079-.136.246-.036.128-.036.52v.507h-.198zm2.189 1.004l.163.085q-.08.158-.185.254-.105.097-.237.148-.13.05-.296.05-.368 0-.575-.24-.207-.242-.207-.546 0-.286.175-.51.223-.284.596-.284.383 0 .613.292.163.205.165.513h-1.35q.005.263.167.431.162.167.399.167.115 0 .222-.04.11-.04.185-.106.076-.066.165-.214zm0-.405q-.039-.154-.114-.247-.073-.092-.194-.149-.122-.057-.256-.057-.22 0-.38.143-.115.103-.175.31zm2.074-1.179v2.082h-.191v-.258q-.122.148-.273.222-.15.075-.33.075-.32 0-.546-.23-.225-.233-.225-.564 0-.324.228-.555.228-.23.548-.23.185 0 .334.078.15.079.264.236v-.856zm-.774.728q-.161 0-.298.08-.137.079-.218.222-.08.144-.08.304 0 .159.081.304.082.145.218.226.139.08.296.08.159 0 .3-.08.143-.08.22-.217.076-.136.076-.308 0-.26-.172-.436-.171-.175-.423-.175zm1.28-.767q.067 0 .113.047.047.047.047.114 0 .064-.047.111-.046.047-.113.047-.065 0-.112-.047t-.047-.111q0-.067.047-.114t.112-.047zm-.096.619h.194v1.502h-.194zm.524 0h.198v.22q.088-.13.186-.194.098-.065.204-.065.08 0 .172.051l-.101.163q-.06-.026-.102-.026-.097 0-.187.08-.09.079-.136.246-.036.128-.036.52v.507h-.198zm2.189 1.004l.163.085q-.08.158-.185.254-.105.097-.236.148-.132.05-.297.05-.368 0-.575-.24-.207-.242-.207-.546 0-.286.176-.51.222-.284.595-.284.383 0 .613.292.163.205.165.513h-1.35q.006.263.167.431.162.167.4.167.114 0 .221-.04.11-.04.185-.106.076-.066.165-.214zm0-.405q-.039-.154-.113-.247-.074-.092-.195-.149-.122-.057-.256-.057-.22 0-.38.143-.115.103-.175.31zm2.032-.287l-.153.095q-.199-.263-.543-.263-.274 0-.457.176-.18.177-.18.43 0 .164.082.309.084.145.23.225.146.08.327.08.331 0 .54-.264l.154.101q-.108.162-.29.252-.18.088-.413.088-.356 0-.59-.227-.235-.226-.235-.55 0-.219.109-.405.11-.188.302-.293.192-.105.43-.105.149 0 .287.046.14.045.236.119.097.073.164.186zm.539-.87h.194v.558h.307v.166h-.307v1.336h-.194v-1.336h-.264v-.166h.264z" aria-label="www redirect" font-weight="400" font-size="10.688" font-family="Century Gothic" letter-spacing="0" word-spacing="0" fill="#428bca"/><path d="M69.024 37.55h1.057v-.355h-1.057zm1.407 0h1.025v-.387h-.354v.212l.175-.18h-.846zm1.025-.74v-1.06h-.354v1.058zm0-1.413V34.34h-.354v1.058zm0-1.407v-1.057h-.354v1.057zm0-1.412v-1.057h-.354v1.057zm0-1.412V30.11h-.354v1.057zm0-1.406v-1.058h-.354v1.058zm0-1.412V27.29h-.354v1.058zm0-1.412v-1.058h-.354v1.058zm0-1.407V24.47h-.354v1.058zm0-1.412v-1.058h-.354v1.058zm0-1.412v-1.058h-.354v1.058zm0-1.407V20.24h-.354v1.058zm0-1.412v-1.058h-.354v1.058zm0-1.412v-1.058h-.354v1.058zm0-1.407V16.01h-.354v1.057zm0-1.412v-1.057h-.354v1.057zm0-1.412v-1.057h-.354v1.057zm0-1.406v-1.058h-.354v1.058zm-.052-1.111h1.057v-.354h-1.057zm1.412 0h.719v-.354h-.72zm-3.443 24.591l-2.116 1.058 2.116 1.058zm3.808-23.713l2.115-1.058-2.115-1.058z" fill="#333" stroke="#333" stroke-width=".005" stroke-linejoin="round"/><path d="M139.54 83.088h.19l-.274-.275v20.551l.275-.275H69.045v.55h70.96v-21.1h-.465zm-70.146 19.219l-2.115 1.057 2.115 1.058z" fill="#428bca" stroke="#428bca" stroke-width=".011" stroke-linejoin="round"/><path d="M75.296 32.108v16.796h58.046V32.108z" fill="#fff" fill-rule="evenodd"/><path d="M75.296 32.108h58.046v16.796H75.296z" fill="none" stroke="#333" stroke-width=".338" stroke-miterlimit="8"/><path d="M100.61 37.604h.304v3.04h-.304zm2.245 0l1.418 3.04h-.326l-.478-1h-1.31l-.476 1h-.339l1.437-3.04zm-.037.645l-.523 1.102h1.04zm1.79 2.396l.432-3.041h.05l1.236 2.495 1.223-2.495h.05l.436 3.04h-.3l-.297-2.174-1.075 2.175h-.077l-1.089-2.192-.295 2.192z" aria-label="IAM" font-weight="400" font-size="16" font-family="Century Gothic" letter-spacing="0" word-spacing="0" fill="#333"/><path d="M92.397 42.229h.173l-.133 1.006q-.026.2-.026.286 0 .165.095.254.094.089.266.089.12 0 .214-.04.093-.042.158-.12.065-.077.093-.178.048-.177.082-.447l.11-.85h.174l-.118.888-.028.217q-.025.152-.06.26-.035.106-.09.188-.057.083-.129.136-.071.052-.174.082-.102.031-.228.031-.26 0-.4-.131-.142-.132-.142-.35 0-.06.007-.136l.027-.205zm2.152.603l-.09.135q-.11-.156-.261-.156-.086 0-.147.056t-.061.124q0 .053.037.1.036.049.163.131.187.12.247.21.058.091.058.21 0 .163-.114.27-.114.108-.297.108-.241 0-.406-.214l.101-.118q.145.176.315.176.096 0 .168-.068.072-.069.072-.158 0-.073-.054-.14-.035-.043-.186-.146-.164-.112-.215-.186-.052-.073-.052-.165 0-.145.109-.246.109-.102.275-.102.098 0 .177.04.08.039.161.14zm1.515.538h-1.159q-.003.232.12.365.125.132.332.132.137 0 .254-.056.117-.056.194-.158l.124.102q-.094.12-.247.194-.152.071-.329.071-.306 0-.46-.189-.153-.19-.153-.426 0-.194.103-.373.104-.18.277-.278.173-.1.375-.1.25 0 .414.169.164.168.164.43 0 .048-.009.117zm-.153-.144q-.007-.184-.125-.298-.118-.115-.298-.115-.195 0-.344.11-.148.11-.21.303zm.511-.539h.166l-.022.163q.067-.093.162-.144.094-.053.193-.053.07 0 .147.034l-.079.153q-.062-.025-.104-.025-.087 0-.173.06-.085.061-.139.179-.052.115-.09.382l-.076.55h-.162z" aria-label="User" font-style="italic" font-weight="400" font-size="9.25" font-family="Century Gothic" letter-spacing="0" word-spacing="0" fill="#333"/><path d="M97.73 43.226h1.253v.154h-1.252z" fill="#333" aria-label="–" font-style="italic" font-weight="400" font-size="9.25" font-family="Century Gothic" letter-spacing="0" word-spacing="0"/><path d="M100.52 42.832l-.09.135q-.11-.156-.26-.156-.087 0-.148.056-.06.056-.06.124 0 .053.037.1.035.049.163.131.187.12.246.21.059.091.059.21 0 .163-.115.27-.113.108-.296.108-.242 0-.406-.214l.101-.118q.145.176.314.176.097 0 .169-.068.072-.069.072-.158 0-.073-.054-.14-.035-.043-.187-.146-.163-.112-.215-.186-.051-.073-.051-.165 0-.145.109-.246.108-.102.275-.102.098 0 .176.04.08.039.162.14z" fill="#333" aria-label="s" font-style="italic" font-weight="400" font-size="9.25" font-family="Century Gothic" letter-spacing="0" word-spacing="0"/><path d="M101.098 42.2h.164l-.065.487h.259l-.02.145h-.258l-.157 1.155h-.168l.157-1.155h-.224l.02-.145h.223zm1.738 1.787h-.169l.025-.196q-.225.23-.517.23-.265 0-.436-.172-.171-.17-.171-.44 0-.31.221-.532.222-.224.522-.224.163 0 .285.068.123.068.21.213l.03-.247h.173zm-.643-.12q.161 0 .294-.075.133-.076.21-.219.078-.142.078-.31 0-.201-.128-.328-.128-.126-.332-.126-.24 0-.411.173-.171.173-.171.425 0 .207.128.334.128.126.332.126zm1.41-1.667h.164l-.065.487h.258l-.019.145h-.258l-.158 1.155h-.167l.157-1.155h-.224l.02-.145h.223zm.725-.049q.055 0 .095.04t.04.094q0 .056-.04.096-.04.038-.095.038-.056 0-.095-.038-.038-.04-.038-.096 0-.055.038-.094.04-.04.095-.04zm-.131.536h.159l-.173 1.3h-.165zm1.728.28l-.137.08q-.145-.234-.443-.234-.172 0-.314.077-.142.076-.222.213-.08.136-.08.291 0 .138.06.246.06.109.167.168.109.058.256.058.15 0 .286-.06.138-.06.214-.154l.138.097q-.13.141-.281.207-.15.064-.35.064-.309 0-.482-.167-.172-.169-.172-.448 0-.31.226-.53.227-.222.556-.222.197 0 .347.084.15.082.231.23z" aria-label="tatic" font-style="italic" font-weight="400" font-size="9.25" font-family="Century Gothic" letter-spacing="0" word-spacing="0" fill="#333"/><path d="M106.232 43.253h.658l-.021.146h-.657z" fill="#333" aria-label="-" font-style="italic" font-weight="400" font-size="9.25" font-family="Century Gothic" letter-spacing="0" word-spacing="0"/><path d="M107.84 42.832l-.09.135q-.11-.156-.261-.156-.086 0-.147.056t-.061.124q0 .053.037.1.036.049.163.131.187.12.247.21.058.091.058.21 0 .163-.115.27-.113.108-.296.108-.241 0-.406-.214l.101-.118q.145.176.315.176.096 0 .168-.068.072-.069.072-.158 0-.073-.054-.14-.035-.043-.186-.146-.164-.112-.215-.186-.052-.073-.052-.165 0-.145.109-.246.109-.102.275-.102.098 0 .177.04.08.039.161.14zm.45-.681q.054 0 .094.04t.04.094q0 .056-.04.096-.04.038-.095.038-.056 0-.095-.038-.039-.04-.039-.096 0-.055.039-.094.04-.04.095-.04zm-.132.536h.159l-.173 1.3h-.165zm.73-.487h.164l-.065.487h.258l-.019.145h-.258l-.158 1.155h-.167l.157-1.155h-.224l.02-.145h.223zm1.792 1.17h-1.16q-.003.232.12.365.125.132.332.132.137 0 .254-.056.118-.056.194-.158l.124.102q-.094.12-.247.194-.152.071-.329.071-.306 0-.46-.189-.153-.19-.153-.426 0-.194.103-.373.104-.18.277-.278.174-.1.376-.1.25 0 .413.169.164.168.164.43 0 .048-.009.117zm-.154-.144q-.007-.184-.125-.298-.118-.115-.298-.115-.194 0-.344.11-.148.11-.21.303z" aria-label="site" font-style="italic" font-weight="400" font-size="9.25" font-family="Century Gothic" letter-spacing="0" word-spacing="0" fill="#333"/><path d="M110.97 43.253h.659l-.022.146h-.657z" fill="#333" aria-label="-" font-style="italic" font-weight="400" font-size="9.25" font-family="Century Gothic" letter-spacing="0" word-spacing="0"/><path d="M111.974 42.687h.167l-.075.543q-.031.231-.031.297 0 .15.099.244.1.094.264.094.136 0 .237-.072.1-.071.143-.187.022-.059.051-.27l.094-.65h.163l-.067.493q-.047.353-.101.502-.054.148-.193.244-.137.095-.335.095-.226 0-.37-.137-.144-.139-.144-.346 0-.082.013-.192l.012-.115.006-.049zm2.091.145l-.09.135q-.11-.156-.261-.156-.086 0-.147.056t-.061.124q0 .053.037.1.036.049.164.131.186.12.246.21.058.091.058.21 0 .163-.114.27-.114.108-.297.108-.241 0-.406-.214l.101-.118q.145.176.315.176.097 0 .168-.068.072-.069.072-.158 0-.073-.054-.14-.034-.043-.186-.146-.164-.112-.215-.186-.052-.073-.052-.165 0-.145.109-.246.109-.102.275-.102.098 0 .177.04.08.039.161.14zm1.515.538h-1.159q-.003.232.12.365.125.132.332.132.137 0 .254-.056.118-.056.194-.158l.124.102q-.094.12-.247.194-.152.071-.329.071-.306 0-.46-.189-.153-.19-.153-.426 0-.194.103-.373.104-.18.277-.278.174-.1.375-.1.25 0 .414.169.164.168.164.43 0 .048-.009.117zm-.153-.144q-.007-.184-.125-.298-.118-.115-.298-.115-.194 0-.344.11-.148.11-.21.303zm.511-.539h.166l-.022.163q.067-.093.162-.144.094-.053.193-.053.07 0 .147.034l-.079.153q-.062-.025-.104-.025-.087 0-.173.06-.085.061-.139.179-.052.115-.09.382l-.076.55h-.162z" aria-label="user" font-style="italic" font-weight="400" font-size="9.25" font-family="Century Gothic" letter-spacing="0" word-spacing="0" fill="#333"/><path d="M9.523 11.372h-6.52v71.235h4.405v-.354h-4.23l.174.18V11.546l-.175.18h6.346zM7.053 83.49l2.116-1.057-2.115-1.058z" fill="#333" stroke="#333" stroke-width=".005" stroke-linejoin="round"/><path d="M59.653 94.95V71.655h-.355V94.95zm.878-22.946l-1.058-2.116-1.058 2.116zm-3.798 2.026v-2.375h-.354v2.374zm.878-2.026l-1.057-2.116-1.058 2.116zm22.889.899H62.344v-1.248h.355v1.073l-.18-.18h17.98zm-19.039-.9l1.058-2.115 1.058 2.116z" fill="#a6a6a6" stroke="#a6a6a6" stroke-width=".005" stroke-linejoin="round"/><path d="M80.33 72.723v1.306" fill="none" stroke="#a6a6a6" stroke-width=".338" stroke-miterlimit="8"/><path d="M9.169 74.035V90.83h58.088V74.035z" fill="#fff" fill-rule="evenodd"/><path d="M9.169 74.035h58.088V90.83H9.17z" fill="none" stroke="#333" stroke-width=".338" stroke-miterlimit="8"/><path d="M36.052 82.006l.259-.155q.273.502.63.502.153 0 .288-.07.134-.072.204-.192.07-.12.07-.254 0-.153-.103-.3-.142-.203-.52-.488-.381-.287-.474-.415-.161-.215-.161-.465 0-.199.095-.362.095-.164.266-.257.174-.095.377-.095.215 0 .4.108.189.105.398.39l-.249.189q-.171-.228-.293-.3-.12-.072-.263-.072-.184 0-.301.111-.116.112-.116.275 0 .1.041.192.042.093.151.203.06.058.393.304.395.291.541.519.147.227.147.456 0 .331-.252.575-.25.244-.61.244-.277 0-.502-.147-.225-.149-.416-.496zm2.613-1.769h-.31q.085-.376.325-.579.24-.203.566-.203.238 0 .442.11.207.107.319.291.113.184.113.385 0 .393-.39.622.219.089.36.26.198.242.198.542 0 .258-.137.494-.136.234-.372.362-.235.128-.527.128-.392 0-.655-.225-.263-.228-.343-.666h.298q.078.296.225.428.188.167.48.167.33 0 .53-.198.201-.198.201-.465 0-.178-.101-.333-.1-.155-.269-.233-.167-.079-.52-.098v-.279q.208 0 .38-.072.171-.074.248-.188.078-.114.078-.248 0-.199-.159-.343-.157-.145-.399-.145-.196 0-.339.112-.143.11-.242.374z" aria-label="S3" font-weight="400" font-size="16" font-family="Century Gothic" letter-spacing="0" word-spacing="0" fill="#333"/><path d="M21.271 84.157h.226q.332 0 .45.04.117.04.188.14.073.098.073.233 0 .141-.076.253-.077.11-.206.16.156.048.244.163t.088.273q0 .161-.076.277-.075.116-.203.167-.128.052-.441.052h-.5zm.152.167l-.079.583q.052.005.12.005.239 0 .344-.038.106-.038.165-.12.058-.082.058-.181 0-.13-.092-.19-.09-.062-.388-.062-.051 0-.128.003zm-.1.755l-.089.67h.238q.249 0 .342-.02.131-.03.198-.108.068-.079.068-.202 0-.11-.055-.183-.055-.074-.18-.115-.125-.042-.375-.042zm1.284-.464h.168l-.076.543q-.03.231-.03.297 0 .15.099.244.1.094.264.094.136 0 .236-.072.1-.071.144-.187.021-.059.051-.27l.093-.65h.164l-.067.493q-.048.353-.102.502-.053.148-.192.244-.137.095-.336.095-.226 0-.37-.137-.144-.139-.144-.346 0-.082.014-.192l.012-.115.005-.049zm2.694.28l-.137.08q-.145-.234-.443-.234-.172 0-.314.077-.142.076-.222.213-.08.136-.08.291 0 .138.06.246.06.109.167.168.109.058.256.058.15 0 .286-.06.138-.06.214-.154l.138.097q-.13.141-.281.207-.15.064-.35.064-.309 0-.482-.167-.172-.169-.172-.448 0-.31.226-.53.227-.222.556-.222.197 0 .347.084.15.082.231.23zm.452-.782h.162l-.137.983.626-.481h.26l-.755.58.666.72h-.222l-.6-.645-.088.645h-.167zm2.32 1.185h-1.159q-.003.232.121.365.124.132.331.132.137 0 .255-.056.117-.056.193-.158l.124.102q-.094.12-.247.194-.152.071-.329.071-.306 0-.46-.189-.153-.19-.153-.426 0-.194.103-.373.104-.18.277-.278.174-.1.376-.1.25 0 .413.169.164.168.164.43 0 .048-.009.117zm-.153-.144q-.007-.184-.125-.298-.118-.115-.298-.115-.194 0-.344.11-.148.11-.21.303zm.786-1.026h.163l-.064.487h.258l-.02.145h-.257l-.158 1.155h-.167l.156-1.155h-.223l.02-.145h.222z" aria-label="Bucket" font-style="italic" font-weight="400" font-size="9.25" font-family="Century Gothic" letter-spacing="0" word-spacing="0" fill="#333"/><path d="M29.845 85.181h.658l-.021.146h-.657z" fill="#333" aria-label="-" font-style="italic" font-weight="400" font-size="9.25" font-family="Century Gothic" letter-spacing="0" word-spacing="0"/><path d="M32.214 84.76l-.09.135q-.11-.156-.26-.156-.087 0-.148.056-.06.056-.06.124 0 .053.036.1.036.049.164.131.186.12.246.21.059.091.059.21 0 .163-.115.27-.114.108-.296.108-.242 0-.407-.214l.102-.118q.144.176.314.176.097 0 .169-.068.071-.069.071-.158 0-.073-.053-.14-.035-.043-.187-.146-.164-.112-.215-.186-.051-.073-.051-.165 0-.145.108-.246.11-.102.275-.102.098 0 .177.04.08.039.161.14zm.556-.632h.164l-.065.487h.258l-.019.145h-.258l-.158 1.155h-.167l.157-1.155h-.224l.02-.145h.223zm1.738 1.787h-.169l.025-.196q-.226.23-.517.23-.265 0-.436-.172-.171-.17-.171-.44 0-.31.22-.532.223-.224.523-.224.163 0 .284.068.124.068.21.213l.03-.247h.174zm-.643-.12q.161 0 .294-.075.132-.076.21-.219.078-.142.078-.31 0-.201-.128-.328-.128-.126-.332-.126-.24 0-.411.173-.171.173-.171.425 0 .207.128.334.127.126.332.126zm1.41-1.667h.164l-.065.487h.258l-.019.145h-.258l-.158 1.155h-.167l.156-1.155h-.223l.02-.145h.223zM36 84.08q.055 0 .095.039.04.04.04.094 0 .056-.04.096-.04.038-.095.038-.056 0-.095-.038-.039-.04-.039-.096 0-.055.039-.094.04-.04.095-.04zm-.131.535h.159l-.174 1.3h-.164zm1.728.28l-.138.08q-.144-.234-.442-.234-.172 0-.314.077-.142.076-.222.213-.08.136-.08.291 0 .138.06.246.06.109.167.168.108.058.255.058.151 0 .287-.06.138-.06.214-.154l.138.097q-.13.141-.281.207-.15.064-.35.064-.309 0-.482-.167-.172-.169-.172-.448 0-.31.226-.53.227-.222.555-.222.198 0 .348.084.15.082.23.23z" aria-label="static" font-style="italic" font-weight="400" font-size="9.25" font-family="Century Gothic" letter-spacing="0" word-spacing="0" fill="#333"/><path d="M37.926 85.181h.658l-.021.146h-.658z" fill="#333" aria-label="-" font-style="italic" font-weight="400" font-size="9.25" font-family="Century Gothic" letter-spacing="0" word-spacing="0"/><path d="M40.098 85.298h-1.16q-.003.232.121.365.125.132.331.132.138 0 .255-.056.117-.056.193-.158l.125.102q-.095.12-.248.194-.151.071-.328.071-.306 0-.46-.189-.153-.19-.153-.426 0-.194.102-.373.104-.18.278-.278.173-.1.375-.1.25 0 .413.169.164.168.164.43 0 .048-.008.117zm-.153-.144q-.007-.184-.126-.298-.118-.115-.297-.115-.195 0-.344.11-.149.11-.21.303zm.395-.539h.188l.317.508.371-.508h.201l-.482.655.394.645h-.19l-.309-.5-.367.5h-.2l.476-.645zm2.472 1.3h-.169l.025-.196q-.226.23-.517.23-.266 0-.436-.172-.171-.17-.171-.44 0-.31.22-.532.223-.224.523-.224.163 0 .284.068.123.068.21.213l.03-.247h.174zm-.643-.12q.161 0 .294-.075.132-.076.21-.219.078-.142.078-.31 0-.201-.128-.328-.128-.126-.332-.126-.24 0-.412.173-.17.173-.17.425 0 .207.127.334.128.126.333.126zm1.204-1.18h.164l-.026.184q.075-.102.192-.16.117-.058.236-.058.146 0 .26.087.087.069.13.204.089-.14.218-.214.13-.077.264-.077.18 0 .296.116.116.116.116.3 0 .084-.015.204l-.097.714h-.163l.088-.624q.027-.196.027-.287 0-.113-.075-.187-.074-.074-.196-.074-.13 0-.24.08-.112.08-.158.19-.047.11-.07.278l-.09.624h-.165l.098-.714q.016-.113.016-.186 0-.126-.074-.2-.074-.076-.193-.076-.1 0-.193.048-.092.046-.15.123-.059.076-.09.19-.03.112-.043.203l-.086.612h-.166zm2.31 0h.17l-.025.194q.226-.228.516-.228.267 0 .436.171.171.171.171.44 0 .31-.22.534-.222.222-.522.222-.162 0-.286-.068-.123-.07-.209-.214l-.094.724h-.173zm.643.12q-.16 0-.294.076-.132.075-.21.217-.078.142-.078.31 0 .202.128.328.13.127.332.127.24 0 .411-.173.171-.174.171-.426 0-.207-.128-.333-.126-.127-.332-.127zm1.051-.622h.163l-.25 1.802h-.166zm1.616 1.185h-1.159q-.003.232.121.365.124.132.331.132.137 0 .255-.056.117-.056.193-.158l.124.102q-.094.12-.247.194-.152.071-.329.071-.306 0-.46-.189-.153-.19-.153-.426 0-.194.103-.373.104-.18.277-.278.174-.1.376-.1.25 0 .413.169.164.168.164.43 0 .048-.009.117zm-.153-.144q-.007-.184-.125-.298-.118-.115-.298-.115-.194 0-.344.11-.148.11-.21.303zm.57.503q.06 0 .102.043.043.043.043.102 0 .06-.043.103-.042.043-.103.043-.06 0-.104-.043-.041-.043-.041-.103t.041-.102q.043-.043.104-.043zm1.892-.762l-.137.08q-.145-.234-.442-.234-.172 0-.315.077-.142.076-.222.213-.08.136-.08.291 0 .138.06.246.06.109.167.168.109.058.256.058.15 0 .287-.06.137-.06.213-.154l.138.097q-.13.141-.28.207-.151.064-.351.064-.308 0-.482-.167-.172-.169-.172-.448 0-.31.226-.53.227-.222.556-.222.197 0 .348.084.15.082.23.23zm.963-.314q.167 0 .305.08.139.08.216.221.078.141.078.32 0 .205-.1.38-.098.175-.266.27-.167.096-.378.096-.262 0-.432-.17-.168-.173-.168-.438 0-.208.099-.384.1-.175.271-.274.173-.1.375-.1zm-.003.16q-.156 0-.293.077-.136.077-.21.214-.073.135-.073.298 0 .206.126.335.127.128.328.128.156 0 .283-.074.128-.075.203-.216.076-.141.076-.303 0-.135-.057-.239-.056-.105-.159-.162-.102-.059-.224-.059zm1.02-.126h.164l-.026.184q.075-.102.192-.16.117-.058.236-.058.147 0 .26.087.087.069.13.204.089-.14.218-.214.13-.077.264-.077.18 0 .296.116.116.116.116.3 0 .084-.015.204l-.097.714h-.163l.088-.624q.027-.196.027-.287 0-.113-.075-.187-.074-.074-.196-.074-.13 0-.24.08-.111.08-.158.19t-.07.278l-.089.624h-.166l.098-.714q.017-.113.017-.186 0-.126-.075-.2-.074-.076-.193-.076-.1 0-.193.048-.092.046-.15.123-.059.076-.09.19-.03.112-.043.203l-.086.612h-.166z" aria-label="example.com" font-style="italic" font-weight="400" font-size="9.25" font-family="Century Gothic" letter-spacing="0" word-spacing="0" fill="#333"/><path d="M75.296 74.035V90.83h58.046V74.035z" fill="#fff" fill-rule="evenodd"/><path d="M75.296 74.035h58.046V90.83H75.296z" fill="none" stroke="#333" stroke-width=".338" stroke-miterlimit="8"/><path d="M96.252 80.096l-.24.184q-.198-.258-.477-.39-.277-.135-.61-.135-.364 0-.674.176-.31.173-.482.469-.17.294-.17.661 0 .557.381.929.383.372.963.372.64 0 1.07-.5l.239.181q-.228.29-.569.449-.339.157-.758.157-.798 0-1.259-.531-.387-.449-.387-1.083 0-.668.468-1.123.469-.457 1.174-.457.425 0 .769.17.343.167.562.471zm.517-.641h.289v3.118h-.29zm1.959.811q.519 0 .86.376.31.343.31.812 0 .472-.329.825-.326.351-.84.351-.518 0-.846-.351-.327-.353-.327-.825 0-.467.31-.81.341-.378.862-.378zm0 .283q-.36 0-.618.267-.258.266-.258.644 0 .244.118.455.117.211.318.327.2.113.44.113t.44-.113q.201-.116.319-.327.118-.21.118-.455 0-.378-.26-.644-.26-.267-.617-.267zm1.668-.225h.292v1.05q0 .384.041.529.062.206.236.326.175.12.417.12t.41-.115q.17-.118.233-.308.044-.13.044-.552v-1.05h.295v1.103q0 .465-.11.701-.107.236-.326.37-.217.132-.546.132-.328 0-.55-.132-.219-.134-.328-.372-.108-.24-.108-.72zm4.854-.869v3.118h-.285v-.387q-.182.221-.41.333-.225.111-.494.111-.477 0-.816-.345-.337-.347-.337-.843 0-.486.34-.831.342-.345.821-.345.277 0 .5.117.226.118.396.354v-1.282zm-1.158 1.09q-.242 0-.446.12-.205.117-.327.332-.12.215-.12.455 0 .238.122.455.122.217.327.339.206.12.442.12.238 0 .45-.12.214-.12.327-.325.116-.204.116-.46 0-.391-.258-.654-.257-.262-.633-.262zm1.863-1.013h1.523v.3h-1.222v.95h1.222v.3h-1.222v1.49h-.301zm1.893.792h.296v.328q.132-.194.279-.29.146-.096.306-.096.12 0 .256.076l-.151.244q-.09-.04-.153-.04-.145 0-.279.12-.134.119-.205.369-.053.192-.053.777v.76h-.296zm2.447-.058q.52 0 .86.376.31.343.31.812 0 .472-.328.825-.327.351-.842.351-.516 0-.845-.351-.327-.353-.327-.825 0-.467.31-.81.342-.378.862-.378zm0 .283q-.36 0-.618.267-.258.266-.258.644 0 .244.118.455.118.211.318.327.2.113.44.113t.44-.113q.201-.116.32-.327.117-.21.117-.455 0-.378-.26-.644-.259-.267-.617-.267zm1.705-.225h.29v.403q.174-.232.385-.346.21-.115.459-.115.252 0 .446.128.196.128.29.345.092.217.092.676v1.158h-.287V81.5q0-.389-.033-.52-.052-.222-.194-.334-.143-.114-.372-.114-.263 0-.472.174-.206.174-.273.43-.04.167-.04.612v.825H112zm2.833-.836h.291v.836h.459v.248h-.459v2h-.291v-2h-.395v-.248h.395z" aria-label="CloudFront" font-weight="400" font-size="16" font-family="Century Gothic" letter-spacing="0" word-spacing="0" fill="#333"/><path d="M80.646 84.157h.377q.359 0 .55.094.191.094.308.29.117.197.117.449 0 .269-.132.497-.132.228-.325.329-.193.099-.575.099h-.553zm.151.17l-.187 1.417h.154q.356 0 .472-.02.177-.028.298-.112.12-.084.206-.252.086-.168.086-.367 0-.209-.098-.365-.096-.157-.266-.234-.145-.067-.489-.067zm1.709-.247q.055 0 .095.039.04.04.04.094 0 .056-.04.096-.04.038-.095.038-.056 0-.095-.038-.039-.04-.039-.096 0-.055.039-.094.04-.04.095-.04zm-.131.535h.159l-.173 1.3h-.165zm1.125.145l-.09.135q-.11-.156-.26-.156-.087 0-.148.056-.06.056-.06.124 0 .053.036.1.036.049.164.131.186.12.246.21.059.091.059.21 0 .163-.115.27-.113.108-.296.108-.242 0-.407-.214l.102-.118q.145.176.314.176.097 0 .169-.068.071-.069.071-.158 0-.073-.053-.14-.035-.043-.187-.146-.163-.112-.215-.186-.051-.073-.051-.165 0-.145.109-.246.108-.102.274-.102.098 0 .177.04.08.039.162.14zm.556-.632h.164l-.065.487h.259l-.02.145h-.258l-.157 1.155h-.168l.157-1.155h-.224l.02-.145h.223zm.557.487h.166l-.021.163q.067-.093.161-.144.094-.053.194-.053.07 0 .147.034l-.08.153q-.061-.025-.103-.025-.087 0-.173.06-.085.061-.14.179-.052.115-.089.382l-.076.55h-.163zm.905-.535q.055 0 .094.039.04.04.04.094 0 .056-.04.096-.04.038-.094.038-.056 0-.096-.038-.038-.04-.038-.096 0-.055.038-.094.04-.04.096-.04zm-.132.535h.16l-.174 1.3h-.165zm.607-.502h.17l-.092.696q.226-.228.516-.228.267 0 .436.171.171.171.171.44 0 .31-.22.534-.222.222-.522.222-.162 0-.285-.068-.123-.07-.21-.214l-.03.249h-.174zm.576.621q-.16 0-.294.077-.132.075-.21.217-.078.142-.078.31 0 .202.128.328.13.127.332.127.24 0 .412-.173.17-.174.17-.426 0-.207-.127-.333-.127-.127-.333-.127zm1.007-.119h.167l-.075.543q-.031.231-.031.297 0 .15.099.244.1.094.264.094.136 0 .236-.072.1-.071.144-.187.021-.059.051-.27l.093-.65h.164l-.067.493q-.048.353-.101.502-.054.148-.193.244-.137.095-.336.095-.225 0-.37-.137-.143-.139-.143-.346 0-.082.013-.192l.012-.115.006-.049zm1.695-.487h.164l-.064.487h.258l-.02.145h-.258l-.157 1.155h-.168l.157-1.155h-.224l.02-.145h.223zm.726-.048q.055 0 .094.039.04.04.04.094 0 .056-.04.096-.04.038-.094.038-.056 0-.096-.038-.038-.04-.038-.096 0-.055.038-.094.04-.04.096-.04zm-.132.535h.16l-.174 1.3h-.165zm1.109-.034q.166 0 .305.08.139.08.216.221.078.141.078.32 0 .205-.1.38-.098.175-.266.27-.167.096-.379.096-.261 0-.431-.17-.168-.173-.168-.438 0-.208.099-.384.099-.175.271-.274.173-.1.375-.1zm-.003.16q-.156 0-.293.077-.136.077-.21.214-.073.135-.073.298 0 .206.126.335.127.128.328.128.156 0 .283-.074.128-.075.203-.216.075-.141.075-.303 0-.135-.056-.239-.056-.105-.159-.162-.102-.059-.224-.059zm1.021-.126h.16l-.025.2q.198-.234.46-.234.2 0 .323.124t.123.333q0 .083-.026.28l-.081.597h-.165l.08-.596q.026-.192.026-.283 0-.136-.082-.22-.083-.083-.217-.083-.131 0-.245.068-.112.067-.174.184-.062.116-.096.368l-.077.562h-.164z" aria-label="Distribution" font-style="italic" font-weight="400" font-size="9.25" font-family="Century Gothic" letter-spacing="0" word-spacing="0" fill="#333"/><path d="M94.09 85.181h.659l-.022.146h-.657z" fill="#333" aria-label="-" font-style="italic" font-weight="400" font-size="9.25" font-family="Century Gothic" letter-spacing="0" word-spacing="0"/><path d="M95.885 84.113h.162l-.095.699q.2-.23.459-.23.197 0 .321.122.126.123.126.32 0 .11-.027.293l-.081.598h-.165l.081-.598q.025-.18.025-.286 0-.134-.083-.217-.084-.082-.22-.082-.127 0-.24.068-.113.068-.175.184-.06.116-.095.368l-.078.563h-.163zm1.629.015h.163l-.064.487h.258l-.02.145h-.257l-.158 1.155h-.167l.156-1.155h-.223l.02-.145h.222zm.831 0h.164l-.064.487h.258l-.02.145h-.258l-.157 1.155H98.1l.157-1.155h-.224l.02-.145h.223zm.642.487h.17l-.025.194q.226-.228.516-.228.266 0 .436.171.171.171.171.44 0 .31-.221.534-.221.222-.521.222-.163 0-.286-.068-.123-.07-.209-.214l-.094.724h-.174zm.643.12q-.16 0-.294.076-.133.075-.21.217-.078.142-.078.31 0 .202.128.328.129.127.332.127.24 0 .411-.173.171-.174.171-.426 0-.207-.128-.333-.126-.127-.332-.127zm1.61.025l-.09.135q-.11-.156-.26-.156-.086 0-.147.056t-.061.124q0 .053.037.1.036.049.163.131.187.12.247.21.058.091.058.21 0 .163-.115.27-.113.108-.296.108-.241 0-.406-.214l.101-.118q.145.176.315.176.096 0 .168-.068.072-.069.072-.158 0-.073-.054-.14-.035-.043-.186-.146-.164-.112-.216-.186-.05-.073-.05-.165 0-.145.108-.246.109-.102.275-.102.098 0 .177.04.08.039.16.14zm.487-.179q.061 0 .103.043.043.043.043.103t-.043.104q-.042.042-.103.042-.06 0-.104-.042-.042-.043-.042-.104 0-.06.043-.103.044-.043.103-.043zm-.147 1.076q.061 0 .103.043.043.043.043.102 0 .06-.043.103-.042.043-.103.043-.06 0-.104-.043-.042-.043-.042-.103t.042-.102q.043-.043.104-.043zm1.46-1.544l-.73 2.04h-.182l.729-2.04zm1.071 0l-.73 2.04h-.183l.73-2.04zm.901.647l-.09.135q-.11-.156-.261-.156-.086 0-.147.056-.06.056-.06.124 0 .053.036.1.036.049.164.131.186.12.246.21.059.091.059.21 0 .163-.115.27-.114.108-.297.108-.24 0-.406-.214l.102-.118q.144.176.314.176.097 0 .169-.068.071-.069.071-.158 0-.073-.054-.14-.034-.043-.186-.146-.164-.112-.215-.186-.051-.073-.051-.165 0-.145.108-.246.11-.102.275-.102.098 0 .177.04.08.039.161.14zm.556-.632h.164l-.065.487h.258l-.019.145h-.258l-.158 1.155h-.167l.157-1.155h-.224l.02-.145h.223zm1.738 1.787h-.169l.025-.196q-.226.23-.517.23-.266 0-.436-.172-.171-.17-.171-.44 0-.31.22-.532.223-.224.523-.224.163 0 .284.068.123.068.21.213l.03-.247h.174zm-.643-.12q.161 0 .294-.075.132-.076.21-.219.078-.142.078-.31 0-.201-.128-.328-.128-.126-.332-.126-.24 0-.412.173-.17.173-.17.425 0 .207.127.334.128.126.333.126zm1.41-1.667h.164l-.065.487h.258l-.019.145h-.258l-.158 1.155h-.167l.156-1.155h-.223l.02-.145h.222zm.725-.048q.055 0 .095.039.039.04.039.094 0 .056-.04.096-.039.038-.094.038-.056 0-.095-.038-.039-.04-.039-.096 0-.055.039-.094.039-.04.095-.04zm-.131.535h.159l-.174 1.3h-.165zm1.728.28l-.138.08q-.144-.234-.442-.234-.172 0-.314.077-.142.076-.222.213-.08.136-.08.291 0 .138.06.246.059.109.167.168.108.058.255.058.15 0 .287-.06.138-.06.214-.154l.137.097q-.129.141-.28.207-.151.064-.35.064-.309 0-.482-.167-.172-.169-.172-.448 0-.31.226-.53.227-.222.555-.222.198 0 .348.084.15.082.23.23z" aria-label="https://static" font-style="italic" font-weight="400" font-size="9.25" font-family="Century Gothic" letter-spacing="0" word-spacing="0" fill="#333"/><path d="M110.802 85.181h.658l-.021.146h-.657z" fill="#333" aria-label="-" font-style="italic" font-weight="400" font-size="9.25" font-family="Century Gothic" letter-spacing="0" word-spacing="0"/><path d="M112.974 85.298h-1.159q-.004.232.12.365.125.132.332.132.137 0 .254-.056.117-.056.194-.158l.124.102q-.094.12-.247.194-.152.071-.329.071-.306 0-.46-.189-.153-.19-.153-.426 0-.194.103-.373.104-.18.277-.278.173-.1.375-.1.25 0 .414.169.164.168.164.43 0 .048-.009.117zm-.153-.144q-.007-.184-.125-.298-.119-.115-.298-.115-.195 0-.344.11-.148.11-.21.303zm.395-.539h.188l.317.508.372-.508h.2l-.481.655.393.645h-.19l-.308-.5-.367.5h-.2l.476-.645zm2.472 1.3h-.168l.025-.196q-.226.23-.518.23-.265 0-.436-.172-.17-.17-.17-.44 0-.31.22-.532.222-.224.522-.224.163 0 .285.068.123.068.21.213l.03-.247h.173zm-.643-.12q.161 0 .294-.075.133-.076.21-.219.078-.142.078-.31 0-.201-.128-.328-.128-.126-.332-.126-.24 0-.411.173-.171.173-.171.425 0 .207.128.334.128.126.332.126zm1.205-1.18h.163l-.026.184q.075-.102.193-.16.117-.058.235-.058.147 0 .26.087.088.069.13.204.09-.14.218-.214.13-.077.264-.077.18 0 .297.116.116.116.116.3 0 .084-.016.204l-.097.714h-.162l.087-.624q.027-.196.027-.287 0-.113-.075-.187-.074-.074-.196-.074-.129 0-.24.08-.111.08-.158.19-.046.11-.07.278l-.089.624h-.166l.098-.714q.017-.113.017-.186 0-.126-.074-.2-.074-.076-.194-.076-.1 0-.192.048-.092.046-.15.123-.06.076-.09.19-.03.112-.043.203l-.086.612h-.167zm2.31 0h.17l-.026.194q.226-.228.517-.228.266 0 .436.171.17.171.17.44 0 .31-.22.534-.222.222-.522.222-.162 0-.285-.068-.123-.07-.21-.214l-.094.724h-.173zm.643.12q-.16 0-.294.076-.133.075-.21.217-.078.142-.078.31 0 .202.127.328.13.127.333.127.24 0 .41-.173.172-.174.172-.426 0-.207-.128-.333-.127-.127-.332-.127zm1.05-.622h.164l-.251 1.802H120zm1.617 1.185h-1.16q-.003.232.121.365.125.132.331.132.138 0 .255-.056.117-.056.194-.158l.124.102q-.095.12-.248.194-.151.071-.328.071-.306 0-.46-.189-.153-.19-.153-.426 0-.194.103-.373.104-.18.277-.278.173-.1.375-.1.25 0 .414.169.163.168.163.43 0 .048-.008.117zm-.153-.144q-.007-.184-.126-.298-.118-.115-.297-.115-.195 0-.344.11-.148.11-.21.303zm.569.503q.06 0 .102.043.044.043.044.102 0 .06-.044.103-.041.043-.102.043-.061 0-.104-.043-.042-.043-.042-.103t.042-.102q.043-.043.104-.043zm1.893-.762l-.138.08q-.144-.234-.442-.234-.172 0-.314.077-.142.076-.223.213-.08.136-.08.291 0 .138.06.246.06.109.167.168.11.058.256.058.15 0 .287-.06.137-.06.214-.154l.137.097q-.129.141-.28.207-.151.064-.35.064-.309 0-.482-.167-.172-.169-.172-.448 0-.31.226-.53.227-.222.555-.222.197 0 .348.084.15.082.23.23zm.963-.314q.166 0 .305.08.138.08.216.221.078.141.078.32 0 .205-.1.38-.099.175-.266.27-.167.096-.379.096-.262 0-.431-.17-.169-.173-.169-.438 0-.208.1-.384.099-.175.27-.274.174-.1.376-.1zm-.004.16q-.155 0-.293.077-.136.077-.21.214-.073.135-.073.298 0 .206.127.335.127.128.327.128.157 0 .284-.074.127-.075.203-.216.075-.141.075-.303 0-.135-.056-.239-.056-.105-.16-.162-.102-.059-.224-.059zm1.021-.126h.163l-.026.184q.075-.102.193-.16.117-.058.235-.058.147 0 .26.087.088.069.13.204.09-.14.218-.214.13-.077.264-.077.18 0 .297.116.116.116.116.3 0 .084-.016.204l-.097.714h-.162l.087-.624q.028-.196.028-.287 0-.113-.076-.187-.074-.074-.196-.074-.129 0-.24.08-.111.08-.158.19-.046.11-.07.278l-.089.624h-.166l.098-.714q.017-.113.017-.186 0-.126-.074-.2-.074-.076-.194-.076-.1 0-.192.048-.092.046-.15.123-.06.076-.09.19-.03.112-.043.203l-.086.612h-.166z" aria-label="example.com" font-style="italic" font-weight="400" font-size="9.25" font-family="Century Gothic" letter-spacing="0" word-spacing="0" fill="#333"/><path d="M75.296 53.135v16.753h58.046V53.135z" fill="#fff" fill-rule="evenodd"/><path d="M75.296 53.135h58.046v16.753H75.296z" fill="none" stroke="#333" stroke-width=".338" stroke-miterlimit="8"/><path d="M86.521 59.178l-.24.184q-.198-.258-.477-.39-.277-.135-.61-.135-.364 0-.674.176-.31.174-.481.47-.17.293-.17.66 0 .557.38.929.383.372.964.372.638 0 1.068-.5l.24.182q-.227.289-.568.448-.34.157-.759.157-.798 0-1.259-.531-.386-.449-.386-1.083 0-.668.467-1.123.469-.456 1.174-.456.426 0 .769.17.343.166.562.47zm2.454 1.73l.244.129q-.12.235-.277.38-.157.145-.354.221-.196.075-.444.075-.55 0-.86-.36-.31-.362-.31-.817 0-.427.262-.762.333-.426.891-.426.575 0 .918.436.244.308.248.769h-2.022q.009.393.25.645.242.25.598.25.171 0 .333-.06.163-.06.277-.16.113-.098.246-.32zm0-.605q-.058-.232-.17-.37-.11-.139-.291-.223-.182-.085-.383-.085-.33 0-.568.213-.174.155-.263.465zm.75-.897h.296v.328q.132-.194.279-.289.146-.097.306-.097.12 0 .256.076l-.151.244q-.09-.039-.153-.039-.145 0-.279.12-.134.118-.205.368-.053.192-.053.777v.76h-.296zm1.635-.836h.292v.836h.458v.248h-.458v2h-.292v-2h-.395v-.248h.395zm1.288-.09q.1 0 .17.07t.07.17q0 .097-.07.167t-.17.07q-.097 0-.168-.07-.07-.07-.07-.168 0-.099.07-.169t.168-.07zm-.145.926h.292v2.249h-.292zm1.821-.868v.283q-.159-.068-.273-.068-.084 0-.14.035-.056.033-.07.078-.015.044-.015.236v.304h.47v.248h-.472v2h-.29v-2h-.295v-.248h.296v-.352q0-.242.043-.345.046-.103.15-.165.108-.064.26-.064.14 0 .336.058zm.506-.058q.1 0 .17.07t.07.17q0 .097-.07.167t-.17.07q-.096 0-.167-.07-.07-.07-.07-.168 0-.099.07-.169t.168-.07zm-.144.926h.291v2.249h-.291zm3.078.467l-.23.143q-.297-.395-.812-.395-.411 0-.684.264-.271.265-.271.643 0 .246.124.463.126.217.343.337.22.12.49.12.496 0 .81-.395l.23.151q-.161.242-.434.376-.271.133-.618.133-.534 0-.885-.34-.351-.338-.351-.824 0-.327.163-.606.165-.281.453-.438.287-.157.642-.157.224 0 .43.068.21.068.354.178.145.11.246.279zm2.794-.467v2.249h-.285v-.387q-.182.221-.41.333-.224.112-.493.112-.478 0-.817-.346-.336-.347-.336-.843 0-.486.34-.83.342-.346.821-.346.277 0 .5.118.226.117.395.353v-.413zm-1.157.22q-.242 0-.447.12-.204.119-.326.334-.12.215-.12.454 0 .238.122.455.122.217.327.34.206.119.442.119.238 0 .45-.12.213-.12.327-.324.116-.205.116-.461 0-.391-.259-.654-.256-.262-.632-.262zm2.063-1.056h.291v.836h.46v.248h-.46v2h-.291v-2h-.395v-.248h.395zm3.08 2.338l.244.129q-.12.235-.277.38-.157.145-.354.221-.196.075-.444.075-.55 0-.86-.36-.31-.362-.31-.817 0-.427.262-.762.333-.426.891-.426.575 0 .918.436.244.308.248.769h-2.021q.008.393.25.645.241.25.597.25.172 0 .333-.06.163-.06.277-.16.113-.098.246-.32zm0-.605q-.058-.232-.17-.37-.11-.139-.291-.223-.182-.085-.383-.085-.33 0-.568.213-.174.155-.263.465zm1.943 1.352l.432-3.041h.05l1.236 2.495 1.223-2.495h.05l.436 3.04h-.3l-.297-2.174-1.075 2.175h-.077l-1.09-2.191-.295 2.19zm6.226-2.249v2.249h-.285v-.387q-.182.221-.41.333-.225.112-.494.112-.477 0-.816-.346-.337-.347-.337-.843 0-.486.34-.83.342-.346.821-.346.277 0 .5.118.226.117.396.353v-.413zm-1.158.22q-.242 0-.446.12-.205.119-.327.334-.12.215-.12.454 0 .238.122.455.122.217.327.34.207.119.442.119.238 0 .45-.12.214-.12.327-.324.116-.205.116-.461 0-.391-.258-.654-.257-.262-.633-.262zm1.811-.22h.29v.403q.173-.232.384-.345.21-.116.459-.116.252 0 .446.128.197.128.29.345.093.217.093.676v1.158h-.288v-1.073q0-.389-.033-.519-.051-.223-.194-.335-.143-.113-.372-.113-.263 0-.471.173-.207.174-.273.43-.042.168-.042.612v.825h-.289zm4.82 0v2.249h-.285v-.387q-.182.221-.41.333-.224.112-.493.112-.478 0-.817-.346-.337-.347-.337-.843 0-.486.341-.83.341-.346.821-.346.277 0 .5.118.226.117.395.353v-.413zm-1.157.22q-.242 0-.447.12-.204.119-.326.334-.12.215-.12.454 0 .238.122.455.122.217.326.34.207.119.443.119.237 0 .45-.12.213-.12.327-.324.116-.205.116-.461 0-.391-.259-.654-.256-.262-.632-.262zm3.747-.22h.292v1.792q0 .473-.083.692-.114.31-.395.478-.28.167-.676.167-.289 0-.52-.082-.23-.081-.375-.22-.144-.136-.266-.4h.314q.128.223.33.33.203.108.503.108.296 0 .498-.112.205-.11.292-.277.086-.167.086-.54v-.115q-.163.207-.399.318-.235.11-.5.11-.31 0-.583-.153-.273-.155-.421-.416-.15-.26-.15-.572 0-.312.156-.581.155-.271.428-.428.275-.157.578-.157.253 0 .47.105.219.104.421.343zm-.853.22q-.246 0-.457.12-.211.119-.33.33-.12.208-.12.452 0 .37.247.612.248.242.643.242.4 0 .64-.24.245-.24.245-.63 0-.255-.112-.453-.111-.2-.316-.316-.205-.116-.44-.116zm3.662 1.282l.244.129q-.12.235-.277.38-.157.145-.353.221-.196.075-.444.075-.55 0-.86-.36-.31-.362-.31-.817 0-.427.262-.762.333-.426.891-.426.575 0 .918.436.244.308.248.769h-2.022q.008.393.25.645.242.25.598.25.171 0 .333-.06.163-.06.277-.16.113-.098.245-.32zm0-.605q-.057-.232-.169-.37-.11-.139-.291-.223-.182-.085-.383-.085-.33 0-.568.213-.174.155-.263.465zm.751-.897h.295v.328q.133-.194.28-.289.146-.097.305-.097.12 0 .257.076l-.151.244q-.091-.039-.153-.039-.145 0-.28.12-.134.118-.204.368-.054.192-.054.777v.76h-.295z" aria-label="Certificate Manager" font-weight="400" font-size="16" font-family="Century Gothic" letter-spacing="0" word-spacing="0" fill="#333"/><path d="M86.726 63.482l-.107.147q-.28-.263-.637-.263-.233 0-.436.113-.202.114-.317.306-.113.193-.113.414 0 .197.087.35.089.153.255.24.166.086.38.086.326 0 .608-.207l.098.14q-.21.138-.36.185-.15.048-.347.048-.365 0-.594-.183-.305-.245-.305-.653 0-.422.305-.716.304-.294.757-.294.207 0 .377.066.17.064.349.22zm1.498.898h-1.159q-.004.232.12.365.125.132.332.132.137 0 .254-.056.117-.056.194-.157l.124.101q-.094.12-.247.194-.152.071-.329.071-.306 0-.46-.188-.153-.19-.153-.427 0-.194.103-.373.104-.18.277-.278.173-.1.375-.1.25 0 .414.17.164.168.164.43 0 .047-.009.116zm-.153-.144q-.007-.184-.125-.298-.119-.115-.298-.115-.195 0-.344.11-.148.11-.21.303zm.511-.539h.166l-.022.164q.067-.094.161-.145.095-.053.194-.053.07 0 .147.034l-.079.153q-.062-.025-.104-.025-.087 0-.173.06-.085.062-.139.179-.052.116-.09.382l-.076.551h-.162zm1.01-.487h.164l-.064.487h.258l-.02.146h-.257l-.158 1.154h-.167l.156-1.154h-.223l.02-.146h.222zm.726-.049q.055 0 .094.04.04.04.04.094 0 .056-.04.096-.04.038-.094.038-.056 0-.096-.038-.038-.04-.038-.096 0-.055.038-.094.04-.04.096-.04zm-.132.536h.16l-.174 1.3h-.165zm1.093-.457l-.023.157q-.09-.086-.169-.086-.05 0-.086.049-.035.049-.056.198l-.02.139h.268l-.018.147h-.268l-.163 1.153h-.163l.163-1.153h-.163l.018-.147h.165l.015-.115q.029-.202.061-.27t.096-.109q.063-.042.14-.042.1 0 .203.078zm.301-.079q.055 0 .094.04.04.04.04.094 0 .056-.04.096-.04.038-.094.038-.056 0-.096-.038-.038-.04-.038-.096 0-.055.038-.094.04-.04.096-.04zm-.132.536h.16l-.174 1.3h-.165zm1.728.281l-.137.08q-.145-.235-.442-.235-.172 0-.315.077-.142.076-.222.213-.08.136-.08.291 0 .138.06.246.06.11.167.168.109.058.256.058.15 0 .287-.06.137-.06.214-.154l.137.097q-.129.141-.28.207-.151.064-.35.064-.31 0-.482-.167-.173-.168-.173-.448 0-.31.226-.53.227-.222.556-.222.197 0 .348.084.15.082.23.23zm1.491 1.019h-.169l.025-.196q-.226.23-.517.23-.266 0-.436-.171-.171-.171-.171-.44 0-.31.22-.533.223-.224.523-.224.162 0 .284.068.123.069.21.213l.03-.247h.174zm-.643-.12q.16 0 .294-.075.132-.076.21-.218.078-.143.078-.31 0-.202-.128-.329-.128-.126-.332-.126-.24 0-.412.173-.17.173-.17.425 0 .207.127.334.128.126.333.126zm1.41-1.667h.163l-.064.487h.258l-.02.146h-.257l-.158 1.154h-.167l.156-1.154h-.223l.02-.146h.222zm1.791 1.17h-1.16q-.003.232.122.365.124.132.33.132.138 0 .255-.056.117-.056.194-.157l.124.101q-.094.12-.247.194-.152.071-.329.071-.306 0-.46-.188-.153-.19-.153-.427 0-.194.103-.373.104-.18.277-.278.173-.1.375-.1.25 0 .414.17.163.168.163.43 0 .047-.008.116zm-.153-.144q-.007-.184-.125-.298-.119-.115-.298-.115-.195 0-.344.11-.148.11-.21.303z" aria-label="Certificate" font-style="italic" font-weight="400" font-size="9.25" font-family="Century Gothic" letter-spacing="0" word-spacing="0" fill="#333"/><path d="M98.237 64.263h.658l-.021.146h-.658z" fill="#333" aria-label="-" font-style="italic" font-weight="400" font-size="9.25" font-family="Century Gothic" letter-spacing="0" word-spacing="0"/><path d="M100.564 63.843l-.09.135q-.11-.157-.261-.157-.086 0-.147.056t-.061.125q0 .052.037.1.036.048.163.13.187.12.247.21.058.091.058.21 0 .163-.115.27-.113.108-.296.108-.241 0-.406-.213l.101-.119q.145.176.315.176.096 0 .168-.068.072-.068.072-.158 0-.073-.054-.14-.035-.043-.186-.146-.164-.112-.215-.186-.052-.073-.052-.165 0-.144.109-.246.109-.102.275-.102.098 0 .177.04.08.04.16.14zm.556-.633h.163l-.064.487h.258l-.02.146h-.257l-.158 1.154h-.167l.156-1.154h-.223l.02-.146h.222zm1.737 1.787h-.168l.025-.196q-.226.23-.518.23-.265 0-.436-.171-.17-.171-.17-.44 0-.31.22-.533.223-.224.523-.224.162 0 .284.068.123.069.21.213l.03-.247h.173zm-.643-.12q.162 0 .294-.075.133-.076.21-.218.078-.143.078-.31 0-.202-.128-.329-.127-.126-.332-.126-.24 0-.41.173-.172.173-.172.425 0 .207.128.334.128.126.332.126zm1.41-1.667h.164l-.064.487h.258l-.02.146h-.258l-.157 1.154h-.168l.157-1.154h-.224l.02-.146h.223zm.726-.049q.055 0 .094.04.04.04.04.094 0 .056-.04.096-.04.038-.094.038-.056 0-.096-.038-.038-.04-.038-.096 0-.055.038-.094.04-.04.096-.04zm-.132.536h.16l-.174 1.3h-.165zm1.728.281l-.137.08q-.145-.235-.442-.235-.172 0-.315.077-.142.076-.222.213-.08.136-.08.291 0 .138.06.246.06.11.167.168.109.058.256.058.15 0 .287-.06.137-.06.214-.154l.137.097q-.129.141-.28.207-.151.064-.35.064-.31 0-.483-.167-.172-.168-.172-.448 0-.31.226-.53.227-.222.556-.222.197 0 .348.084.15.082.23.23z" aria-label="static" font-style="italic" font-weight="400" font-size="9.25" font-family="Century Gothic" letter-spacing="0" word-spacing="0" fill="#333"/><path d="M106.275 64.263h.659l-.022.146h-.657z" fill="#333" aria-label="-" font-style="italic" font-weight="400" font-size="9.25" font-family="Century Gothic" letter-spacing="0" word-spacing="0"/><path d="M108.447 64.38h-1.159q-.004.232.12.365.125.132.332.132.137 0 .254-.056.117-.056.194-.157l.124.101q-.094.12-.247.194-.152.071-.329.071-.306 0-.46-.188-.153-.19-.153-.427 0-.194.103-.373.104-.18.277-.278.173-.1.375-.1.25 0 .414.17.164.168.164.43 0 .047-.009.116zm-.153-.144q-.007-.184-.125-.298-.119-.115-.298-.115-.195 0-.344.11-.148.11-.21.303zm.395-.539h.188l.317.508.372-.508h.2l-.481.655.393.645h-.19l-.308-.5-.367.5h-.2l.476-.645zm2.472 1.3h-.168l.025-.196q-.226.23-.518.23-.265 0-.436-.171-.17-.171-.17-.44 0-.31.22-.533.223-.224.523-.224.162 0 .284.068.123.069.21.213l.03-.247h.173zm-.643-.12q.162 0 .294-.075.133-.076.21-.218.078-.143.078-.31 0-.202-.128-.329-.128-.126-.332-.126-.24 0-.411.173-.17.173-.17.425 0 .207.127.334.128.126.332.126zm1.205-1.18h.163l-.026.184q.075-.102.193-.16.117-.058.235-.058.147 0 .26.088.088.068.13.203.09-.139.218-.214.13-.077.264-.077.18 0 .297.116.116.116.116.3 0 .084-.016.205l-.097.713h-.162l.087-.624q.028-.196.028-.287 0-.113-.076-.187-.074-.074-.196-.074-.129 0-.24.08-.111.081-.158.191-.046.11-.07.277l-.089.624h-.166l.098-.713q.017-.114.017-.187 0-.125-.074-.2-.074-.076-.194-.076-.1 0-.192.048-.092.047-.15.123-.06.076-.09.19-.03.112-.043.203l-.086.612h-.166zm2.31 0h.17l-.026.195q.226-.229.517-.229.266 0 .436.171.17.171.17.44 0 .31-.22.534-.222.222-.521.222-.163 0-.286-.068-.123-.069-.21-.214l-.094.725h-.173zm.643.12q-.16 0-.294.076-.133.075-.21.217-.078.143-.078.31 0 .202.128.328.129.127.332.127.24 0 .41-.173.172-.173.172-.426 0-.206-.128-.333-.127-.127-.332-.127zm1.05-.622h.164l-.251 1.802h-.165zm1.617 1.185h-1.16q-.003.232.121.365.125.132.331.132.138 0 .255-.056.117-.056.194-.157l.124.101q-.095.12-.247.194-.152.071-.33.071-.305 0-.46-.188-.152-.19-.152-.427 0-.194.103-.373.104-.18.277-.278.173-.1.375-.1.25 0 .414.17.163.168.163.43 0 .047-.008.116zm-.153-.144q-.007-.184-.126-.298-.118-.115-.297-.115-.195 0-.344.11-.148.11-.21.303zm.569.503q.06 0 .103.043t.043.103q0 .06-.043.102-.042.043-.103.043-.061 0-.104-.043-.042-.043-.042-.102 0-.06.042-.103.043-.043.104-.043zm1.893-.761l-.138.08q-.144-.235-.442-.235-.172 0-.314.077-.142.076-.222.213-.08.136-.08.291 0 .138.06.246.059.11.167.168.108.058.255.058.15 0 .287-.06.138-.06.214-.154l.137.097q-.129.141-.28.207-.151.064-.35.064-.309 0-.482-.167-.172-.168-.172-.448 0-.31.226-.53.227-.222.555-.222.198 0 .348.084.15.082.23.23zm.963-.315q.166 0 .305.08.138.08.216.222.078.14.078.32 0 .204-.1.38-.099.174-.266.27-.167.095-.379.095-.262 0-.431-.17-.169-.173-.169-.438 0-.208.1-.383.099-.176.27-.275.174-.1.376-.1zm-.004.16q-.155 0-.292.077-.137.078-.21.214-.074.135-.074.299 0 .205.127.334.127.128.327.128.157 0 .284-.074.128-.075.203-.216.075-.141.075-.303 0-.135-.056-.239-.056-.105-.159-.162-.103-.059-.225-.059zm1.021-.126h.164l-.027.184q.076-.102.193-.16.117-.058.235-.058.147 0 .26.088.088.068.13.203.09-.139.218-.214.13-.077.264-.077.18 0 .297.116.116.116.116.3 0 .084-.016.205l-.097.713h-.162l.087-.624q.028-.196.028-.287 0-.113-.076-.187-.074-.074-.196-.074-.129 0-.24.08-.111.081-.158.191-.046.11-.07.277l-.089.624h-.166l.098-.713q.017-.114.017-.187 0-.125-.074-.2-.074-.076-.194-.076-.1 0-.192.048-.092.047-.15.123-.06.076-.09.19-.03.112-.043.203l-.086.612h-.166z" aria-label="example.com" font-style="italic" font-weight="400" font-size="9.25" font-family="Century Gothic" letter-spacing="0" word-spacing="0" fill="#333"/><path d="M9.169 53.135v16.753h58.088V53.135z" fill="#fff" fill-rule="evenodd"/><path d="M9.169 53.135h58.088v16.753H9.17z" fill="none" stroke="#333" stroke-width=".338" stroke-miterlimit="8"/><path d="M36.052 61.088l.258-.155q.273.503.63.503.153 0 .288-.07.134-.073.204-.193.07-.12.07-.254 0-.153-.103-.3-.142-.202-.52-.488-.381-.287-.474-.415-.161-.215-.161-.465 0-.199.095-.362.095-.163.267-.256.173-.095.376-.095.215 0 .4.107.189.105.398.39l-.248.189q-.172-.228-.294-.3-.12-.072-.262-.072-.184 0-.302.111-.116.112-.116.275 0 .1.041.193.042.093.151.202.06.058.393.304.395.291.542.519.146.227.146.457 0 .33-.252.574-.25.244-.61.244-.277 0-.502-.147-.225-.148-.415-.496zm2.612-1.769h-.31q.085-.376.325-.579.24-.202.566-.202.238 0 .443.11.206.107.318.29.114.185.114.385 0 .393-.391.622.219.09.36.26.198.243.198.542 0 .259-.136.494-.137.234-.373.362-.235.128-.527.128-.392 0-.655-.225-.262-.228-.343-.666h.298q.078.296.225.428.188.168.48.168.33 0 .53-.199.201-.198.201-.465 0-.178-.101-.333-.1-.155-.269-.233-.167-.079-.52-.097v-.28q.208 0 .38-.072.171-.074.248-.188.078-.114.078-.248 0-.198-.159-.343-.157-.145-.399-.145-.196 0-.339.112-.142.11-.242.374z" aria-label="S3" font-weight="400" font-size="16" font-family="Century Gothic" letter-spacing="0" word-spacing="0" fill="#333"/><path d="M24.74 63.24h.226q.332 0 .449.04.117.04.189.138.073.1.073.235 0 .14-.077.252-.076.11-.205.16.155.048.243.164.089.114.089.272 0 .161-.077.277-.075.116-.203.168-.128.051-.44.051h-.501zm.152.166l-.08.584q.052.004.12.004.24 0 .344-.038.107-.038.165-.12.059-.082.059-.181 0-.13-.092-.19-.091-.062-.389-.062-.051 0-.127.003zm-.1.756l-.09.669h.238q.25 0 .342-.02.132-.03.199-.108.068-.079.068-.202 0-.11-.055-.183-.055-.074-.18-.114-.126-.042-.376-.042zm1.284-.465h.167l-.075.544q-.031.23-.031.296 0 .15.099.244.1.094.264.094.136 0 .237-.072.1-.071.143-.187.022-.059.051-.27l.094-.65h.163l-.067.493q-.047.353-.101.502-.054.148-.193.244-.137.095-.335.095-.226 0-.37-.137-.144-.139-.144-.345 0-.083.013-.193l.012-.114.006-.05zm2.694.281l-.138.08q-.145-.235-.442-.235-.172 0-.315.077-.142.076-.222.213-.08.136-.08.291 0 .138.06.246.06.11.167.168.109.058.256.058.15 0 .287-.06.137-.06.214-.154l.137.097q-.129.141-.28.207-.151.064-.35.064-.31 0-.483-.167-.172-.168-.172-.448 0-.31.226-.53.227-.222.556-.222.197 0 .348.084.15.082.23.23zm.451-.783h.163l-.138.983.626-.481h.26l-.754.58.665.72h-.222l-.6-.645-.087.645h-.167zm2.321 1.185h-1.16q-.003.232.121.365.125.132.331.132.138 0 .255-.056.117-.056.193-.157l.125.101q-.095.12-.248.194-.151.071-.328.071-.306 0-.46-.188-.153-.19-.153-.427 0-.194.102-.373.104-.18.278-.278.173-.1.375-.1.25 0 .413.17.164.168.164.43 0 .047-.008.116zm-.153-.144q-.007-.184-.126-.298-.118-.115-.297-.115-.195 0-.344.11-.149.11-.21.303zm.785-1.026h.164l-.065.487h.258l-.019.146h-.258l-.158 1.154h-.167l.157-1.154h-.224l.02-.146h.223z" aria-label="Bucket" font-style="italic" font-weight="400" font-size="9.25" font-family="Century Gothic" letter-spacing="0" word-spacing="0" fill="#333"/><path d="M33.274 64.236h1.252v.154h-1.252z" fill="#333" aria-label="–" font-style="italic" font-weight="400" font-size="9.25" font-family="Century Gothic" letter-spacing="0" word-spacing="0"/><path d="M36.064 63.843l-.091.135q-.11-.157-.26-.157-.087 0-.148.056-.06.056-.06.125 0 .052.036.1.036.048.164.13.186.12.246.21.059.091.059.21 0 .163-.115.27-.113.108-.296.108-.242 0-.407-.213l.102-.119q.145.176.314.176.097 0 .169-.068.071-.068.071-.158 0-.073-.053-.14-.035-.043-.187-.146-.163-.112-.215-.186-.051-.073-.051-.165 0-.144.109-.246.108-.102.274-.102.098 0 .177.04.08.04.162.14zm.556-.633h.163l-.065.487h.259l-.02.146H36.7l-.157 1.154h-.168l.157-1.154h-.224l.02-.146h.223zm1.737 1.787h-.169l.025-.196q-.225.23-.517.23-.265 0-.436-.171-.171-.171-.171-.44 0-.31.221-.533.222-.224.522-.224.163 0 .285.068.123.069.21.213l.03-.247h.173zm-.643-.12q.161 0 .294-.075.132-.076.21-.218.078-.143.078-.31 0-.202-.128-.329-.128-.126-.332-.126-.24 0-.411.173-.171.173-.171.425 0 .207.128.334.128.126.332.126zm1.41-1.667h.164l-.065.487h.258l-.019.146h-.258l-.158 1.154h-.167l.157-1.154h-.224l.02-.146h.223zm.726-.049q.054 0 .094.04t.04.094q0 .056-.04.096-.04.038-.095.038-.056 0-.095-.038-.038-.04-.038-.096 0-.055.038-.094.04-.04.095-.04zm-.132.536h.159l-.173 1.3h-.165zm1.728.281l-.138.08q-.144-.235-.442-.235-.172 0-.314.077-.142.076-.222.213-.08.136-.08.291 0 .138.06.246.06.11.167.168.109.058.255.058.151 0 .287-.06.138-.06.214-.154l.138.097q-.13.141-.281.207-.15.064-.35.064-.309 0-.482-.167-.172-.168-.172-.448 0-.31.226-.53.227-.222.556-.222.197 0 .347.084.15.082.23.23z" aria-label="static" font-style="italic" font-weight="400" font-size="9.25" font-family="Century Gothic" letter-spacing="0" word-spacing="0" fill="#333"/><path d="M41.775 64.263h.658l-.021.146h-.658z" fill="#333" aria-label="-" font-style="italic" font-weight="400" font-size="9.25" font-family="Century Gothic" letter-spacing="0" word-spacing="0"/><path d="M43.383 63.843l-.091.135q-.11-.157-.26-.157-.087 0-.148.056-.06.056-.06.125 0 .052.037.1.035.048.163.13.187.12.246.21.059.091.059.21 0 .163-.115.27-.113.108-.296.108-.241 0-.406-.213l.101-.119q.145.176.314.176.097 0 .169-.068.072-.068.072-.158 0-.073-.054-.14-.035-.043-.187-.146-.163-.112-.215-.186-.051-.073-.051-.165 0-.144.109-.246.108-.102.275-.102.098 0 .176.04.08.04.162.14zm.449-.682q.055 0 .095.04.039.04.039.094 0 .056-.04.096-.039.038-.094.038-.056 0-.095-.038-.039-.04-.039-.096 0-.055.039-.094.039-.04.095-.04zm-.131.536h.159l-.174 1.3h-.165zm.729-.487h.165l-.065.487h.258l-.019.146h-.258l-.158 1.154h-.167l.156-1.154h-.223l.02-.146h.223zm1.792 1.17h-1.159q-.004.232.12.365.125.132.332.132.137 0 .254-.056.117-.056.194-.157l.124.101q-.094.12-.247.194-.152.071-.329.071-.306 0-.46-.188-.153-.19-.153-.427 0-.194.103-.373.104-.18.277-.278.173-.1.375-.1.25 0 .414.17.164.168.164.43 0 .047-.009.116zm-.153-.144q-.007-.184-.125-.298-.119-.115-.298-.115-.195 0-.344.11-.148.11-.21.303z" aria-label="site" font-style="italic" font-weight="400" font-size="9.25" font-family="Century Gothic" letter-spacing="0" word-spacing="0" fill="#333"/><path d="M46.513 64.263h.659l-.022.146h-.657z" fill="#333" aria-label="-" font-style="italic" font-weight="400" font-size="9.25" font-family="Century Gothic" letter-spacing="0" word-spacing="0"/><path d="M47.56 63.195h.165l-.251 1.802h-.165zm1.037.468q.166 0 .305.08.138.08.216.222.078.14.078.32 0 .204-.1.38-.099.174-.266.27-.167.095-.379.095-.262 0-.431-.17-.169-.173-.169-.438 0-.208.1-.383.099-.176.27-.275.174-.1.376-.1zm-.004.16q-.155 0-.292.077-.137.078-.21.214-.074.135-.074.299 0 .205.127.334.127.128.327.128.157 0 .284-.074.127-.075.203-.216.075-.141.075-.303 0-.135-.056-.239-.056-.105-.16-.162-.102-.059-.224-.059zm2.123-.126h.163l-.149 1.1q-.036.267-.087.373-.07.147-.234.242-.164.094-.388.094-.22 0-.375-.09-.154-.09-.234-.259l.15-.054q.135.248.46.248.17 0 .294-.07.126-.069.18-.178.032-.065.065-.285l.008-.052q-.212.231-.515.231-.27 0-.433-.164-.164-.165-.164-.428 0-.193.1-.363.1-.17.274-.275.176-.104.356-.104.151 0 .275.068.125.067.221.213zm-.496.125q-.164 0-.305.08-.14.077-.218.21-.076.135-.076.3 0 .192.122.309.122.117.327.117.249 0 .413-.162.165-.163.165-.41 0-.218-.134-.33-.134-.114-.294-.114zm1.644.021l-.09.135q-.11-.157-.261-.157-.086 0-.147.056t-.061.125q0 .052.037.1.036.048.164.13.186.12.246.21.058.091.058.21 0 .163-.114.27-.114.108-.297.108-.241 0-.406-.213l.101-.119q.145.176.315.176.097 0 .168-.068.072-.068.072-.158 0-.073-.054-.14-.034-.043-.186-.146-.164-.112-.215-.186-.052-.073-.052-.165 0-.144.109-.246.109-.102.275-.102.098 0 .177.04.08.04.161.14z" aria-label="logs" font-style="italic" font-weight="400" font-size="9.25" font-family="Century Gothic" letter-spacing="0" word-spacing="0" fill="#333"/><path d="M9.169 94.935v16.796h58.088V94.935z" fill="#fff" fill-rule="evenodd"/><path d="M9.169 94.935h58.088v16.796H9.17z" fill="none" stroke="#333" stroke-width=".338" stroke-miterlimit="8"/><path d="M36.052 102.924l.258-.155q.273.502.63.502.153 0 .288-.07.134-.072.204-.192.07-.12.07-.255 0-.153-.103-.3-.142-.202-.52-.487-.38-.287-.474-.416-.161-.215-.161-.465 0-.198.095-.361.095-.164.267-.257.173-.095.376-.095.215 0 .4.108.189.105.398.39l-.248.188q-.172-.227-.294-.3-.12-.072-.262-.072-.184 0-.302.112-.116.112-.116.275 0 .1.041.192.042.093.151.203.06.058.393.304.395.291.542.518.146.228.146.457 0 .331-.252.575-.25.244-.61.244-.277 0-.502-.147-.225-.149-.415-.496zm2.612-1.769h-.31q.085-.377.325-.58.24-.202.566-.202.238 0 .443.11.206.107.318.291.114.184.114.385 0 .392-.391.622.219.089.36.26.198.242.198.542 0 .258-.136.494-.137.233-.373.362-.235.128-.527.128-.392 0-.655-.226-.262-.227-.343-.665h.298q.078.295.225.428.188.167.48.167.33 0 .53-.198.201-.199.201-.465 0-.178-.101-.333-.1-.155-.269-.234-.167-.078-.52-.097v-.279q.208 0 .38-.072.171-.075.248-.188.078-.114.078-.248 0-.199-.159-.344-.157-.144-.399-.144-.196 0-.339.111-.142.11-.242.375z" aria-label="S3" font-weight="400" font-size="16" font-family="Century Gothic" letter-spacing="0" word-spacing="0" fill="#333"/><path d="M17.801 105.075h.226q.332 0 .45.04.117.04.188.139.073.1.073.234 0 .141-.076.252-.077.112-.206.16.156.048.244.164.088.115.088.273 0 .161-.076.277-.075.116-.203.167-.128.052-.441.052h-.5zm.152.167l-.079.583q.052.005.12.005.239 0 .344-.038.106-.038.165-.12.058-.082.058-.181 0-.13-.092-.19-.09-.063-.388-.063-.051 0-.128.004zm-.1.755l-.089.67h.238q.249 0 .342-.02.131-.03.198-.108.068-.08.068-.202 0-.11-.055-.183-.055-.074-.18-.115-.126-.042-.375-.042zm1.284-.465h.168l-.076.544q-.03.23-.03.297 0 .149.098.243.1.095.265.095.136 0 .236-.072.1-.072.144-.188.021-.058.051-.268l.093-.65h.164l-.067.492q-.048.352-.102.502-.053.148-.192.243-.137.096-.336.096-.226 0-.37-.137-.144-.139-.144-.346 0-.082.013-.192l.012-.115.006-.049zm2.693.281l-.137.08q-.144-.234-.442-.234-.172 0-.314.077-.142.076-.222.212-.08.137-.08.292 0 .137.06.246.06.109.167.167.108.059.255.059.151 0 .287-.06.138-.06.214-.154l.138.097q-.13.14-.281.207-.15.064-.35.064-.309 0-.482-.167-.172-.169-.172-.448 0-.311.226-.53.227-.222.555-.222.198 0 .348.084.15.082.23.23zm.453-.783h.162l-.137.984.626-.482h.26l-.755.581.666.72h-.222l-.6-.646-.088.646h-.167zm2.32 1.186h-1.159q-.003.232.12.364.125.133.332.133.137 0 .254-.056.118-.056.194-.158l.124.102q-.094.12-.247.193-.152.072-.329.072-.306 0-.46-.189-.153-.19-.153-.426 0-.194.103-.373.104-.18.277-.279.174-.1.375-.1.25 0 .414.17.164.168.164.43 0 .048-.009.117zm-.153-.145q-.007-.184-.125-.297-.118-.115-.298-.115-.194 0-.344.11-.148.11-.21.302zm.785-1.025h.164l-.064.486h.258l-.02.146h-.257l-.158 1.155h-.167l.156-1.155h-.223l.02-.146h.222z" aria-label="Bucket" font-style="italic" font-weight="400" font-size="9.25" font-family="Century Gothic" letter-spacing="0" word-spacing="0" fill="#333"/><path d="M26.375 106.099h.658l-.021.146h-.658z" fill="#333" aria-label="-" font-style="italic" font-weight="400" font-size="9.25" font-family="Century Gothic" letter-spacing="0" word-spacing="0"/><path d="M27.999 105.532h.166l.267.918.49-.918h.028l.296.928.478-.928h.18l-.672 1.3h-.034l-.3-.917-.49.918h-.03zm2.036 0h.166l.268.918.489-.918h.028l.297.928.478-.928h.179l-.672 1.3h-.033l-.301-.917-.49.918h-.03zm2.036 0h.166l.268.918.489-.918h.029l.296.928.478-.928h.18l-.672 1.3h-.034l-.301-.917-.489.918h-.03zm2.17 1.042q.061 0 .103.044.043.043.043.102 0 .06-.043.103-.042.043-.103.043-.06 0-.104-.043-.041-.043-.041-.103t.041-.102q.043-.044.104-.044zm1.291-.896l-.09.135q-.11-.156-.261-.156-.086 0-.147.056t-.061.124q0 .053.037.1.036.048.164.13.186.121.246.211.058.09.058.21 0 .163-.114.27-.114.108-.297.108-.241 0-.406-.214l.101-.118q.145.176.315.176.097 0 .168-.069.072-.068.072-.157 0-.073-.054-.14-.034-.043-.186-.146-.164-.112-.215-.186-.052-.073-.052-.165 0-.145.109-.246.109-.102.275-.102.098 0 .177.04.08.039.161.14zm.556-.632h.163l-.064.486h.258l-.02.146h-.257l-.158 1.155h-.167l.156-1.155h-.223l.02-.146h.222zm1.737 1.787h-.168l.025-.196q-.226.23-.518.23-.265 0-.436-.172-.17-.17-.17-.44 0-.31.22-.533.223-.223.523-.223.162 0 .284.068.123.068.21.213l.03-.248H38zm-.643-.12q.162 0 .294-.075.133-.077.21-.219.078-.142.078-.31 0-.201-.128-.328-.127-.127-.332-.127-.24 0-.41.174-.172.173-.172.425 0 .207.128.333.128.127.332.127zm1.41-1.667h.164l-.064.486h.258l-.02.146h-.257l-.158 1.155h-.167l.156-1.155h-.223l.02-.146h.222zm.726-.049q.055 0 .094.04.04.039.04.094 0 .056-.04.096-.04.038-.094.038-.056 0-.096-.038-.038-.04-.038-.096 0-.055.038-.094.04-.04.096-.04zm-.132.535h.16l-.174 1.3h-.165zm1.728.281l-.137.08q-.145-.234-.442-.234-.172 0-.314.077-.143.076-.223.212-.08.137-.08.292 0 .137.06.246.06.109.167.167.109.059.256.059.15 0 .287-.06.137-.06.214-.154l.137.097q-.129.14-.28.207-.151.064-.35.064-.31 0-.482-.167-.173-.169-.173-.448 0-.311.226-.53.227-.222.556-.222.197 0 .348.084.15.082.23.23z" aria-label="www.static" font-style="italic" font-weight="400" font-size="9.25" font-family="Century Gothic" letter-spacing="0" word-spacing="0" fill="#333"/><path d="M41.267 106.099h.658l-.021.146h-.657z" fill="#333" aria-label="-" font-style="italic" font-weight="400" font-size="9.25" font-family="Century Gothic" letter-spacing="0" word-spacing="0"/><path d="M43.44 106.216h-1.16q-.004.232.12.364.125.133.332.133.137 0 .254-.056.117-.056.194-.158l.124.102q-.094.12-.247.193-.152.072-.329.072-.306 0-.46-.189-.153-.19-.153-.426 0-.194.103-.373.104-.18.277-.279.173-.1.375-.1.25 0 .414.17.164.168.164.43 0 .048-.009.117zm-.154-.145q-.007-.184-.125-.297-.119-.115-.298-.115-.195 0-.344.11-.148.11-.21.302zm.394-.539h.19l.316.508.372-.508h.2l-.481.655.393.646h-.19l-.308-.5-.367.5h-.2l.476-.646zm2.473 1.301h-.168l.025-.196q-.226.23-.518.23-.265 0-.436-.172-.17-.17-.17-.44 0-.31.22-.533.222-.223.522-.223.163 0 .285.068.123.068.21.213l.03-.248h.173zm-.643-.12q.161 0 .294-.075.133-.077.21-.219.078-.142.078-.31 0-.201-.128-.328t-.332-.127q-.24 0-.411.174-.171.173-.171.425 0 .207.128.333.128.127.332.127zm1.205-1.181h.163l-.026.184q.075-.101.193-.158.117-.059.235-.059.147 0 .26.087.088.068.13.203.09-.138.218-.214.13-.076.264-.076.18 0 .297.116.116.116.116.3 0 .083-.016.204l-.097.714h-.162l.087-.624q.027-.196.027-.287 0-.114-.075-.188-.074-.074-.196-.074-.129 0-.24.082-.111.08-.158.19-.046.11-.07.277l-.089.624h-.166l.098-.714q.017-.113.017-.186 0-.126-.074-.201-.074-.075-.194-.075-.1 0-.192.048-.092.046-.15.123-.06.076-.09.19-.03.112-.043.203l-.086.612h-.167zm2.31 0h.17l-.026.195q.226-.228.517-.228.266 0 .436.17.17.172.17.44 0 .311-.22.535-.222.222-.522.222-.162 0-.285-.068-.123-.07-.21-.214l-.094.724h-.173zm.643.12q-.16 0-.294.076-.133.076-.21.218-.078.142-.078.31 0 .201.127.328.13.127.333.127.24 0 .41-.174.172-.173.172-.425 0-.207-.128-.333-.127-.127-.332-.127zm1.05-.622h.164l-.251 1.803h-.165zm1.617 1.186h-1.16q-.003.232.121.364.125.133.331.133.138 0 .255-.056.117-.056.194-.158l.124.102q-.095.12-.248.193-.151.072-.328.072-.306 0-.46-.189-.153-.19-.153-.426 0-.194.103-.373.104-.18.277-.279.173-.1.375-.1.25 0 .414.17.163.168.163.43 0 .048-.008.117zm-.153-.145q-.007-.184-.126-.297-.118-.115-.297-.115-.195 0-.344.11-.148.11-.21.302zm.568.503q.062 0 .104.044.043.043.043.102 0 .06-.043.103-.042.043-.103.043-.061 0-.104-.043-.042-.043-.042-.103t.042-.102q.043-.044.104-.044zm1.894-.761l-.138.08q-.144-.234-.442-.234-.172 0-.314.077-.142.076-.222.212-.08.137-.08.292 0 .137.06.246.059.109.166.167.11.059.256.059.15 0 .287-.06.137-.06.214-.154l.137.097q-.129.14-.28.207-.151.064-.35.064-.309 0-.482-.167-.172-.169-.172-.448 0-.311.226-.53.227-.222.555-.222.197 0 .348.084.15.082.23.23zm.963-.314q.166 0 .305.08.138.079.216.221.078.141.078.32 0 .205-.1.38-.099.175-.266.27-.167.096-.379.096-.262 0-.431-.17-.169-.173-.169-.438 0-.208.1-.384.099-.175.27-.275.174-.1.376-.1zm-.004.159q-.155 0-.293.078-.136.077-.21.213-.073.136-.073.3 0 .205.127.334.127.128.327.128.157 0 .284-.074.127-.076.203-.217.075-.14.075-.302 0-.135-.056-.239-.056-.105-.16-.163-.102-.058-.224-.058zm1.021-.126h.164l-.027.184q.076-.101.193-.158.117-.059.235-.059.147 0 .26.087.088.068.13.203.09-.138.218-.214.13-.076.264-.076.18 0 .297.116.116.116.116.3 0 .083-.016.204l-.097.714H58.2l.087-.624q.028-.196.028-.287 0-.114-.076-.188-.074-.074-.196-.074-.129 0-.24.082-.111.08-.158.19-.046.11-.07.277l-.089.624h-.166l.098-.714q.017-.113.017-.186 0-.126-.074-.201-.074-.075-.194-.075-.1 0-.192.048-.092.046-.15.123-.06.076-.09.19-.03.112-.043.203l-.086.612h-.166z" aria-label="example.com" font-style="italic" font-weight="400" font-size="9.25" font-family="Century Gothic" letter-spacing="0" word-spacing="0" fill="#333"/><path d="M75.312 46.064h-1.058v-.354h1.058zm-1.412 0h-1.058v-.354H73.9zm-1.412 0H71.43v-.354h1.058zm-1.407 0h-1.058v-.354h1.058zm-1.412 0h-1.058v-.354h1.058zm-1.412 0h-1.058v-.354h1.058zm-1.407 0h-1.057v-.354h1.057zm-1.412 0h-1.057v-.354h1.057zm-1.412 0H62.97v-.354h1.057zm-1.407 0h-1.057v-.354h1.057zm-1.412 0H60.15v-.354h1.057zm-1.412 0h-1.057v-.354h1.057zm-1.406 0H57.33v-.354h1.058zm-1.412 0h-1.058v-.354h1.058zm-1.412 0h-1.058v-.354h1.058zm-1.407 0H53.1v-.354h1.058zm-1.412 0h-1.058v-.354h1.058zm-1.412 0h-1.058v-.354h1.058zm-1.407 0H48.87v-.354h1.058zm-1.412 0h-1.058v-.354h1.058zm-1.412 0h-1.058v-.354h1.058zm-1.407 0H44.64v-.354h1.057zm-1.412 0h-1.057v-.354h1.057zm-1.412 0h-1.057v-.354h1.057zm-1.406 0h-1.058v-.354h1.058zm-1.412 0h-1.058v-.354h1.058zm-1.412 0h-.582v-.83h.354v.655l-.18-.18h.408zm-.582-1.18v-1.057h.354v1.058zm0-1.411v-1.058h.354v1.058zm0-1.412v-1.058h.354v1.058zm0-1.407v-1.058h.354v1.058zm0-1.412v-1.058h.354v1.058zm0-1.412v-1.058h.354v1.058zm0-1.407v-1.058h.354v1.058zm0-1.412v-1.058h.354v1.058zm0-1.412v-1.058h.354V33.6zm0-1.407v-1.057h.354v1.057zm0-1.412v-1.057h.354v1.057zm0-1.412v-1.057h.354v1.057zm0-1.406v-1.058h.354v1.058zm0-1.412v-1.058h.354v1.058zm0-1.412V24.08h.354v1.058zm0-1.407v-1.058h.354v1.058zm0-1.412v-.63h.354v.63zm-.883-.28l1.057-2.116 1.058 2.115z" fill="#333" stroke="#333" stroke-width=".005" stroke-linejoin="round"/><path d="M9.169 3.17v16.753h58.088V3.17z" fill="#fff" fill-rule="evenodd"/><path d="M9.169 3.17h58.088v16.753H9.17z" fill="none" stroke="#333" stroke-width=".338" stroke-miterlimit="8"/><path d="M33.063 8.65h.305v1.275h1.547V8.65h.306v3.04h-.306v-1.467h-1.547v1.467h-.305zm2.813.791h.291v1.05q0 .385.042.53.062.206.235.326.176.12.418.12t.409-.116q.17-.117.234-.308.043-.13.043-.552v-1.05h.296v1.104q0 .465-.11.7-.107.237-.327.37-.217.133-.545.133-.329 0-.55-.132-.22-.134-.329-.372-.107-.24-.107-.72zm4.545 0h.292v1.793q0 .473-.083.692-.114.31-.395.477-.28.168-.676.168-.29 0-.52-.083-.23-.08-.375-.219-.144-.136-.266-.4h.314q.128.222.33.33.203.107.503.107.295 0 .498-.111.205-.11.291-.277.087-.168.087-.54v-.116q-.163.207-.399.319-.235.11-.5.11-.31 0-.583-.154-.273-.155-.422-.415-.148-.26-.148-.573 0-.312.155-.58.155-.271.428-.428.274-.157.578-.157.253 0 .47.105.219.103.421.343zm-.853.222q-.246 0-.457.12-.211.117-.331.328-.12.209-.12.453 0 .37.248.612t.643.242q.399 0 .64-.24.245-.24.245-.63 0-.255-.112-.453-.112-.2-.316-.317-.205-.115-.44-.115zm2.833-.279q.52 0 .86.376.31.343.31.812 0 .471-.328.825-.327.351-.842.351-.516 0-.845-.351-.327-.354-.327-.825 0-.467.31-.81.342-.378.862-.378zm0 .283q-.36 0-.618.266-.258.267-.258.645 0 .244.118.455.118.21.318.327.2.113.44.113t.44-.113q.201-.116.32-.327.117-.21.117-.455 0-.378-.26-.645-.259-.266-.617-.266z" aria-label="Hugo" font-weight="400" font-size="16" font-family="Century Gothic" letter-spacing="0" word-spacing="0" fill="#333"/><path d="M31.139 13.6l-.166.042q-.034-.111-.11-.176-.076-.065-.165-.065-.098 0-.16.067-.061.066-.061.177 0 .098.066.205.04.067.196.208.161.145.224.272.065.125.065.246 0 .128-.07.246-.07.119-.188.187-.119.068-.251.068-.169 0-.293-.108-.123-.107-.177-.315l.163-.055q.038.158.124.234.086.077.198.077.128 0 .22-.095.092-.094.092-.233 0-.101-.052-.198t-.203-.233q-.163-.148-.212-.227-.08-.132-.08-.278 0-.18.117-.297.118-.118.293-.118.147 0 .262.093.114.093.168.276zm.545-.354h.164l-.065.486h.258l-.019.146h-.258l-.158 1.155h-.167l.157-1.155h-.224l.02-.146h.223zm1.738 1.787h-.169l.025-.196q-.226.23-.517.23-.266 0-.436-.172-.171-.17-.171-.44 0-.31.22-.533.223-.223.523-.223.162 0 .284.068.123.068.21.213l.03-.248h.174zm-.643-.12q.16 0 .294-.075.132-.077.21-.219.078-.142.078-.31 0-.201-.128-.328t-.333-.127q-.24 0-.41.174-.171.173-.171.425 0 .207.127.333.128.127.333.127zm1.41-1.667h.163l-.064.486h.258l-.02.146h-.257l-.158 1.155h-.167l.156-1.155h-.223l.02-.146h.222zm.725-.049q.055 0 .095.04.039.039.039.094 0 .056-.04.096-.039.038-.094.038-.056 0-.095-.038-.039-.04-.039-.096 0-.055.039-.094.039-.04.095-.04zm-.131.535h.159l-.174 1.3h-.165zm1.727.281l-.137.08q-.144-.234-.442-.234-.172 0-.314.077-.142.076-.222.212-.08.137-.08.292 0 .137.06.246.059.109.166.167.11.059.256.059.15 0 .287-.06.137-.06.214-.154l.137.097q-.129.14-.28.207-.151.064-.35.064-.309 0-.482-.167-.172-.169-.172-.448 0-.311.226-.53.227-.222.555-.222.197 0 .348.084.15.082.23.23zm1.66-.135l-.091.135q-.11-.156-.261-.156-.086 0-.147.056-.06.056-.06.124 0 .053.036.1.036.048.164.13.186.122.246.211.059.091.059.21 0 .163-.115.27-.114.108-.297.108-.24 0-.406-.214l.102-.118q.144.176.314.176.097 0 .169-.069.071-.068.071-.157 0-.073-.054-.14-.034-.043-.186-.146-.164-.112-.215-.186-.051-.073-.051-.165 0-.145.108-.246.109-.102.275-.102.098 0 .177.04.08.039.161.14zm.449-.681q.055 0 .094.04.04.039.04.094 0 .056-.04.096-.04.038-.094.038-.057 0-.096-.038-.038-.04-.038-.096 0-.055.038-.094.04-.04.096-.04zm-.132.535h.16l-.174 1.3h-.165zm.73-.486h.164l-.064.486h.258l-.02.146h-.258l-.157 1.155h-.168l.157-1.155h-.224l.02-.146h.223zm1.792 1.17h-1.16q-.003.232.121.365.125.132.331.132.138 0 .255-.056.117-.056.193-.158l.125.102q-.095.12-.248.193-.151.072-.328.072-.306 0-.46-.189-.153-.19-.153-.426 0-.194.102-.373.104-.18.278-.279.173-.1.375-.1.25 0 .413.17.164.168.164.43 0 .048-.008.117zm-.153-.145q-.007-.184-.126-.297-.118-.115-.297-.115-.195 0-.344.11-.149.11-.21.302zm1.826-.996l-.023.158q-.09-.087-.168-.087-.05 0-.087.05-.035.048-.056.198l-.02.138h.268l-.018.147h-.268l-.162 1.154h-.164l.164-1.154h-.164l.018-.147h.165l.015-.114q.029-.202.061-.27t.096-.11q.063-.04.14-.04.1 0 .203.077zm.301-.078q.055 0 .094.04.04.039.04.094 0 .056-.04.096-.04.038-.094.038-.056 0-.096-.038-.038-.04-.038-.096 0-.055.038-.094.04-.04.096-.04zm-.132.535h.16l-.174 1.3h-.165zm.566-.502h.163l-.25 1.803h-.165zm1.617 1.186h-1.16q-.003.232.121.365.124.132.331.132.137 0 .255-.056.117-.056.193-.158l.124.102q-.094.12-.247.193-.152.072-.329.072-.305 0-.46-.189-.153-.19-.153-.426 0-.194.103-.373.104-.18.277-.279.174-.1.376-.1.25 0 .413.17.164.168.164.43 0 .048-.008.117zm-.153-.145q-.008-.184-.126-.297-.118-.115-.297-.115-.195 0-.345.11-.148.11-.21.302zm1.18-.393l-.09.135q-.11-.156-.261-.156-.086 0-.147.056t-.061.124q0 .053.037.1.036.048.164.13.186.122.246.211.058.091.058.21 0 .163-.114.27-.114.108-.297.108-.241 0-.406-.214l.102-.118q.144.176.314.176.097 0 .168-.069.072-.068.072-.157 0-.073-.054-.14-.034-.043-.186-.146-.164-.112-.215-.186-.052-.073-.052-.165 0-.145.11-.246.108-.102.274-.102.098 0 .177.04.08.039.161.14z" aria-label="Static site files" font-style="italic" font-weight="400" font-size="9.25" font-family="Century Gothic" letter-spacing="0" word-spacing="0" fill="#333"/></svg>